<svg xmlns="http://www.w3.org/2000/svg" xmlns:xlink="http://www.w3.org/1999/xlink" width="160" height="160" viewBox="0 0 160 160">
    <defs>
        <circle id="a" cx="75" cy="75" r="75"/>
    </defs>
    <g fill="none" fill-rule="evenodd" opacity=".1" transform="translate(5 5)">
        <mask id="b" fill="#fff">
            <use xlink:href="#a"/>
        </mask>
        <circle cx="75" cy="75" r="76.5" stroke="#3EB5E5" stroke-width="3"/>
        <g mask="url(#b)">
            <path d="M35.469 129.494h79.062V27.54H35.47z"/>
            <path fill="#FFF" d="M45.781 118.947H102.5V32.814H45.781z"/>
            <path fill="#3EB5E5" d="M114.531 131.25H35.47c-.95 0-1.719-.786-1.719-1.758V27.54c0-.972.768-1.758 1.719-1.758h20.625v3.516H37.187v98.437h75.626V29.297H93.906V25.78h20.625c.95 0 1.719.786 1.719 1.758v101.953c0 .972-.768 1.758-1.719 1.758z"/>
            <path fill="#FFF" d="M56.094 38.088h37.812V20.51H56.094z"/>
            <path fill="#3EB5E5" d="M57.813 36.328h34.374V22.266H57.813v14.062zm36.093 3.516H56.094c-.95 0-1.719-.786-1.719-1.758V20.508c0-.972.768-1.758 1.719-1.758h37.812c.95 0 1.719.786 1.719 1.758v17.578c0 .972-.768 1.758-1.719 1.758z"/>
            <path fill="#3EB5E5" d="M104.219 120.703H45.78c-.95 0-1.718-.786-1.718-1.758V34.57c0-.972.768-1.758 1.718-1.758h10.314v3.516H47.5v80.86h55v-80.86h-8.595v-3.516h10.314c.95 0 1.719.786 1.719 1.758v84.375c0 .972-.769 1.758-1.72 1.758"/>
            <path fill="#3EB5E5" d="M87.031 32.813H62.97c-.95 0-1.719-.786-1.719-1.758V25.78h3.438v3.516h20.624V25.78h3.438v5.274c0 .972-.768 1.758-1.719 1.758"/>
            <path stroke="#3EB5E5" stroke-width="3.438" d="M54.375 64.455h30.938M54.375 56.955h41.25"/>
            <path fill="#7BE3EF" d="M54.375 92.578h13.75v14.063h-13.75z"/>
        </g>
    </g>
</svg>
