<svg xmlns="http://www.w3.org/2000/svg" xmlns:xlink="http://www.w3.org/1999/xlink" width="160" height="160" viewBox="0 0 160 160">
    <defs>
        <circle id="a" cx="75" cy="75" r="75"/>
    </defs>
    <g fill="none" fill-rule="evenodd" opacity=".1" transform="translate(5 5)">
        <mask id="b" fill="#fff">
            <use xlink:href="#a"/>
        </mask>
        <circle cx="75" cy="75" r="76.5" stroke="#3EB5E5" stroke-width="3"/>
        <path fill="#FFF" d="M126.035 159.975v-27.583s-.429-28.405-33.322-36.127c0 0-7.427 7.494-18.778 7.418-11.35.076-18.777-7.418-18.777-7.418-32.893 7.722-33.319 36.127-33.319 36.127v27.583s19.154-1.872 35.385 2.807c16.239 4.678 45.305 9.357 68.811-2.807" mask="url(#b)"/>
        <g mask="url(#b)">
            <path fill="#FFF" d="M21.335 155.147V131.42s.447-30.262 34.778-38.484c0 0 7.756 7.983 19.603 7.897 11.847.086 19.604-7.897 19.604-7.897 34.331 8.222 34.778 38.484 34.778 38.484v23.726"/>
            <path stroke="#3EB5E5" stroke-linecap="round" stroke-linejoin="round" stroke-width="3.455" d="M21.335 155.147V131.42s.447-30.262 34.778-38.484c0 0 7.756 7.983 19.603 7.897 11.847.086 19.604-7.897 19.604-7.897 34.331 8.222 34.778 38.484 34.778 38.484v23.726"/>
            <path fill="#FFF" d="M103.24 48.531c.326.39 2.431.425 3.088.984 1.911 1.618 1.443 4.893.834 7.014-.308 1.063-.823 2.026-1.467 2.937-.648.917-2.62 2.236-2.9 3.209-1.517 5.302-8.035 30.373-27.184 30.373-19.146 0-27.63-22.82-28.808-29.89-3.394-.483-8.447-15.592 1.085-14.627l12.357-13.524 27.596-5.005 15.398 18.53"/>
            <path stroke="#3EB5E5" stroke-linecap="round" stroke-linejoin="round" stroke-width="3.455" d="M103.24 48.531c.326.39 2.431.425 3.088.984 1.911 1.618 1.443 4.893.834 7.014-.308 1.063-.823 2.026-1.467 2.937-.648.917-2.62 2.236-2.9 3.209-1.517 5.302-8.035 30.373-27.184 30.373-19.146 0-27.63-22.82-28.808-29.89-3.394-.483-8.447-15.592 1.085-14.627l12.357-13.524 27.596-5.005 15.398 18.53z"/>
            <path fill="#FFF" d="M100.89 54.641s4.49-8.68 2.77-17.997c-1.662-8.998-8.602-19.024-24.2-20.409-21.708-1.93-41.699 8.838-30.235 38.406 0 0 2.906-12.641 13.19-12.641l30.418-1.48s-.816 7.386 3.85 7.386c4.664 0 4.425 4.59 4.207 6.735"/>
            <path stroke="#3EB5E5" stroke-linecap="round" stroke-linejoin="round" stroke-width="3.455" d="M100.89 54.641s4.49-8.68 2.77-17.997c-1.662-8.998-8.602-19.024-24.2-20.409-21.708-1.93-41.699 8.838-30.235 38.406 0 0 2.906-12.641 13.19-12.641l30.418-1.48s-.816 7.386 3.85 7.386c4.664 0 4.425 4.59 4.207 6.735z"/>
            <path fill="#FFF" d="M67.711 78.855c2.004 1.672 4.55 2.716 7.366 2.716 2.812 0 5.358-1.044 7.362-2.716"/>
            <path stroke="#3EB5E5" stroke-linecap="round" stroke-linejoin="round" stroke-width="3.455" d="M67.711 78.855c2.004 1.672 4.55 2.716 7.366 2.716 2.812 0 5.358-1.044 7.362-2.716"/>
            <path fill="#FFF" d="M42.39 160.463v-31.256"/>
            <path stroke="#3EB5E5" stroke-linecap="round" stroke-linejoin="round" stroke-width="3.455" d="M42.39 160.463v-31.256"/>
            <path fill="#FFF" d="M70.662 100.37l-14.55 8.682V92.936"/>
            <path stroke="#3EB5E5" stroke-linecap="round" stroke-linejoin="round" stroke-width="3.455" d="M70.662 100.37l-14.55 8.682V92.936"/>
            <path fill="#FFF" d="M82.668 112.872l-1.515-7.642H70.297l-1.53 7.642h2.548l-2.549 42.274h13.902l-2.55-42.274z"/>
            <path stroke="#3EB5E5" stroke-linecap="round" stroke-linejoin="round" stroke-width="3.455" d="M82.668 112.872l-1.515-7.642H70.297l-1.53 7.642h2.548l-2.549 42.274h13.902l-2.55-42.274z"/>
            <g>
                <path fill="#FFF" d="M110.17 160.463v-31.256"/>
                <path stroke="#3EB5E5" stroke-linecap="round" stroke-linejoin="round" stroke-width="3.455" d="M110.17 160.463v-31.256"/>
            </g>
            <path stroke="#3EB5E5" stroke-linecap="round" stroke-linejoin="round" stroke-width="3.455" d="M56.113 92.937s7.756 7.982 19.603 7.9c11.847.082 19.604-7.9 19.604-7.9"/>
            <path stroke="#3EB5E5" stroke-linecap="round" stroke-linejoin="round" stroke-width="3.455" d="M80.435 100.37l14.55 8.682V92.936"/>
        </g>
    </g>
</svg>
