<svg xmlns="http://www.w3.org/2000/svg" width="160" height="160" viewBox="0 0 160 160">
    <g fill="none" fill-rule="evenodd" opacity=".1" transform="translate(5.825 6.825)">
        <circle cx="74.075" cy="74.075" r="75.954" stroke="#3EB5E5" stroke-width="3.758"/>
        <path fill="#FFF" d="M121.031 108.05c0 2.37-1.999 4.308-4.443 4.308h-88.27c-2.444 0-4.443-1.938-4.443-4.308V58.652c0-2.37 2-4.308 4.443-4.308h88.27c2.444 0 4.443 1.938 4.443 4.308v49.398z"/>
        <path stroke="#3EB5E5" stroke-width="3.554" d="M121.031 108.05c0 2.37-1.999 4.308-4.443 4.308h-88.27c-2.444 0-4.443-1.938-4.443-4.308V58.652c0-2.37 2-4.308 4.443-4.308h88.27c2.444 0 4.443 1.938 4.443 4.308v49.398z"/>
        <path fill="#FFF" d="M41.647 99.434c-2.443 0-4.443-1.938-4.443-4.308v-23.55c0-2.37 2-4.308 4.443-4.308h61.612c2.444 0 4.443 1.938 4.443 4.308v23.55c0 2.37-1.999 4.308-4.443 4.308"/>
        <path stroke="#7BE3EF" stroke-width="3.554" d="M60.366 99.434h42.893c2.444 0 4.443-1.938 4.443-4.308v-23.55c0-2.37-1.999-4.308-4.443-4.308H41.647c-2.443 0-4.443 1.938-4.443 4.308v23.55c0 2.37 2 4.308 4.443 4.308h18.719z"/>
        <path fill="#FFF" d="M21.802 43.143c0-2.37 2-4.308 4.444-4.308h92.415c2.444 0 4.443 1.938 4.443 4.308v16.945c0 8.53-7.198 15.509-15.995 15.509H37.797c-8.797 0-15.995-6.98-15.995-15.51V43.144z"/>
        <path stroke="#3EB5E5" stroke-width="3.554" d="M21.802 43.143c0-2.37 2-4.308 4.444-4.308h92.415c2.444 0 4.443 1.938 4.443 4.308v16.945c0 8.53-7.198 15.509-15.995 15.509H37.797c-8.797 0-15.995-6.98-15.995-15.51V43.144zM53.2 38.26v-4.882c0-2.37 1.998-4.308 4.442-4.308h29.623c2.443 0 4.443 1.939 4.443 4.308v4.882"/>
        <path fill="#FFF" d="M80.452 78.469c0 .71-.6 1.292-1.333 1.292H65.787c-.732 0-1.333-.581-1.333-1.292v-5.745c0-.71.6-1.292 1.333-1.292H79.12c.733 0 1.333.582 1.333 1.292v5.745z"/>
        <path stroke="#3EB5E5" stroke-width="3.554" d="M80.452 78.469c0 .71-.6 1.292-1.333 1.292H65.787c-.732 0-1.333-.581-1.333-1.292v-5.745c0-.71.6-1.292 1.333-1.292H79.12c.733 0 1.333.582 1.333 1.292v5.745z"/>
    </g>
</svg>
