<svg xmlns="http://www.w3.org/2000/svg" width="52" height="52" viewBox="0 0 52 52">
    <g fill="none" fill-rule="evenodd">
        <path fill="#FFF" d="M12.007 20.51v10.54c0 3.92 6.339 7.098 14.16 7.098 7.82 0 14.159-3.178 14.159-7.098V20.51h-28.32z"/>
        <path stroke="#000" stroke-linecap="round" stroke-linejoin="round" stroke-width="2" d="M12.007 20.51v10.54c0 3.92 6.339 7.098 14.16 7.098 7.82 0 14.159-3.178 14.159-7.098V20.51h-28.32z"/>
        <path fill="#FC0" d="M25.753 30.332L3 20.58 26.58 10l22.752 9.753z"/>
        <path stroke="#000" stroke-linecap="round" stroke-linejoin="round" stroke-width="2" d="M25.753 30.332L3 20.58 26.58 10l22.752 9.753z"/>
        <path fill="#FFF" d="M29.413 20.166c0 1.128-1.454 2.042-3.246 2.042-1.793 0-3.247-.914-3.247-2.042 0-1.128 1.454-2.042 3.247-2.042 1.792 0 3.246.914 3.246 2.042"/>
        <path stroke="#000" stroke-linecap="round" stroke-linejoin="round" stroke-width="2" d="M29.413 20.166c0 1.128-1.454 2.042-3.246 2.042-1.793 0-3.247-.914-3.247-2.042 0-1.128 1.454-2.042 3.247-2.042 1.792 0 3.246.914 3.246 2.042z"/>
        <path fill="#000" d="M37.14 41.834a3.69 3.69 0 0 1-3.686-3.687c0-1.156.962-5.685 3.686-5.685s3.686 4.528 3.686 5.685a3.69 3.69 0 0 1-3.686 3.687"/>
        <path fill="#FFF" d="M37.14 31.961c-3.139 0-4.186 4.876-4.186 6.186a4.191 4.191 0 0 0 4.186 4.186 4.191 4.191 0 0 0 4.186-4.186c0-1.31-1.047-6.186-4.186-6.186m0 1c2.193 0 3.186 3.978 3.186 5.186a3.19 3.19 0 0 1-3.186 3.186 3.19 3.19 0 0 1-3.186-3.186c0-1.208.993-5.186 3.186-5.186"/>
        <path fill="#FC0" d="M39.326 38.148a2.186 2.186 0 1 1-4.372 0c0-1.209.978-4.187 2.186-4.187 1.207 0 2.186 2.979 2.186 4.187"/>
        <path stroke="#000" stroke-linecap="round" stroke-linejoin="round" stroke-width="2" d="M39.326 38.148a2.186 2.186 0 1 1-4.372 0c0-1.209.978-4.187 2.186-4.187 1.207 0 2.186 2.979 2.186 4.187zM28.845 21.316l8.295 3.556v9.086"/>
    </g>
</svg>
