<svg xmlns="http://www.w3.org/2000/svg" width="52" height="52" viewBox="0 0 52 52">
    <g fill="none" fill-rule="evenodd">
        <path fill="#FFF" d="M38.717 33.713h6.073v5.508c0 1.703-1.36 3.082-3.035 3.082-1.68 0-3.038-1.38-3.038-3.082"/>
        <path stroke="#3EB5E5" stroke-width="1.427" d="M38.717 33.713h6.073v5.508c0 1.703-1.36 3.082-3.035 3.082-1.68 0-3.038-1.38-3.038-3.082"/>
        <path fill="#FFF" d="M41.754 42.303c-1.678 0-3.037-1.38-3.037-3.082V5.677H12.34V31.66l.065 4.238c0 3.537 2.825 6.404 6.31 6.404h23.105"/>
        <path stroke="#3EB5E5" stroke-linejoin="round" stroke-width="1.427" d="M41.754 42.303c-1.678 0-3.037-1.38-3.037-3.082V5.677H12.34V31.66l.065 4.238c0 3.537 2.825 6.404 6.31 6.404h23.105"/>
        <path stroke="#3EB5E5" stroke-linecap="round" stroke-linejoin="round" stroke-width="1.427" d="M28.771 24.14h5.886M28.771 28.458h5.886M27.344 32.775h7.313M23.897 37.093h10.88"/>
        <path fill="#FFF" d="M24.918 26.024c0 5.01-4.001 9.07-8.935 9.07s-8.936-4.06-8.936-9.07c0-5.008 4.002-9.068 8.936-9.068s8.935 4.06 8.935 9.068"/>
        <path stroke="#3EB5E5" stroke-width="1.427" d="M24.918 26.024c0 5.01-4.001 9.07-8.935 9.07s-8.936-4.06-8.936-9.07c0-5.008 4.002-9.068 8.936-9.068s8.935 4.06 8.935 9.068z"/>
        <path fill="#FFF" d="M22.299 24.473c0 5.01-4.001 9.07-8.936 9.07-4.933 0-8.935-4.06-8.935-9.07 0-5.008 4.002-9.068 8.935-9.068 4.935 0 8.936 4.06 8.936 9.068"/>
        <path stroke="#3EB5E5" stroke-width="1.427" d="M22.299 24.473c0 5.01-4.001 9.07-8.936 9.07-4.933 0-8.935-4.06-8.935-9.07 0-5.008 4.002-9.068 8.935-9.068 4.935 0 8.936 4.06 8.936 9.068z"/>
        <path fill="#7BE3EF" d="M16.32 20.473h-1.093l-4.438 8.083h1.117l4.341-7.948zM16.719 27.09a.772.772 0 0 1-.187.3.44.44 0 0 1-.32.112c-.145 0-.251-.036-.325-.111a.738.738 0 0 1-.177-.3 1.481 1.481 0 0 1-.07-.396 8.048 8.048 0 0 1-.01-.39c0-.118.005-.25.016-.397.01-.138.037-.268.082-.388a.744.744 0 0 1 .191-.285c.077-.068.19-.104.334-.104a.38.38 0 0 1 .296.115.829.829 0 0 1 .175.306c.039.125.064.257.074.394.01.143.015.266.015.37 0 .112-.005.24-.015.382-.01.137-.036.269-.08.391m1.257-1.59a1.867 1.867 0 0 0-.304-.698 1.555 1.555 0 0 0-.56-.474c-.229-.116-.518-.175-.858-.175-.319 0-.599.057-.834.168a1.655 1.655 0 0 0-.588.461 1.937 1.937 0 0 0-.34.681 3.072 3.072 0 0 0-.108.834c0 .297.031.58.091.839.062.266.166.501.309.697.143.2.335.357.568.47.23.112.516.168.85.168.318 0 .598-.054.833-.162.236-.11.432-.263.584-.458.149-.191.261-.42.334-.68.072-.254.109-.534.109-.832 0-.296-.029-.578-.086-.839M10.516 21.65c.077-.076.186-.113.331-.113a.37.37 0 0 1 .295.118c.078.09.137.2.175.327.04.136.065.279.075.422a5.08 5.08 0 0 1 0 .752c-.01.131-.036.255-.079.37a.67.67 0 0 1-.185.277.463.463 0 0 1-.323.105c-.143 0-.253-.035-.327-.103a.659.659 0 0 1-.175-.277 1.373 1.373 0 0 1-.069-.374 6.409 6.409 0 0 1 .005-.787c.01-.146.038-.284.084-.411a.816.816 0 0 1 .193-.306m1.11 3.08a1.55 1.55 0 0 0 .584-.44c.15-.186.263-.41.337-.665.07-.252.107-.53.107-.828 0-.296-.028-.582-.085-.849a1.967 1.967 0 0 0-.304-.72 1.552 1.552 0 0 0-.56-.49c-.228-.119-.518-.18-.858-.18-.319 0-.6.059-.835.174a1.656 1.656 0 0 0-.587.478c-.153.2-.268.437-.34.701a3.214 3.214 0 0 0-.108.843c0 .298.03.58.092.835a1.8 1.8 0 0 0 .308.682c.144.192.336.345.568.453.23.108.517.163.85.163.318 0 .598-.053.832-.157M28.587 16.853h6.19v-6.427h-6.19z"/>
    </g>
</svg>
