<svg xmlns="http://www.w3.org/2000/svg" width="130" height="163" viewBox="0 0 130 163">
    <g fill="none" fill-rule="evenodd">
        <path stroke="#FFF" stroke-linecap="round" stroke-width="2.403" d="M99.556 128.397H62.702M43.474 152.393v4.8M93.147 121.998h12.818M115.58 121.998h-4.808M101.158 19.614H88.34M73.919 11.615v-4.8M32.258 144.394H19.44"/>
        <path d="M45.523 122.356s.293 7.626-5.427 10.852v11l-21.41-4.694v-31.09l10.413-10.413"/>
        <path fill="#3EBEE5" d="M71.994 40.354S71.7 32.727 77.42 29.5v-11l21.41 4.695v31.089L88.417 64.699"/>
        <path fill="#7BE3EF" d="M56.443 59.862h22.036v-2.63H56.443zM56.443 65.78h17.362v-2.63H56.443zM56.443 79.594h22.036v-2.63H56.443zM56.443 85.512h17.362v-2.628H56.443zM56.443 98.01h22.036v-2.628H56.443zM56.443 109.567h22.036v-2.633H56.443zM56.443 103.647h17.362v-2.63H56.443z"/>
        <path stroke="#7BE3EF" stroke-width="1.602" d="M38.093 67.48h10.049v-9.9h-10.05zM38.093 86.416h10.049v-9.9h-10.05zM38.093 105.397h10.049v-9.898h-10.05z"/>
        <path fill="#FFF" d="M44.142 62.146l-2.265-2.239-1.888 1.863 4.153 4.092 8.233-8.104-1.89-1.864zM44.142 81.112l-2.265-2.229-1.888 1.861 4.153 4.092 8.233-8.11-1.89-1.855zM44.142 100.089l-2.265-2.236-1.888 1.86 4.153 4.093 8.233-8.105-1.89-1.861z"/>
        <path fill="#FFF" d="M76.142 41.984l5.93-3.918 7.266 4.798v80.83H27.394v-80.83l7.264-4.798 5.924 3.918 5.93-3.918 5.924 3.918 5.93-3.918 5.923 3.918 5.929-3.918 5.924 3.918zm5.93-.748l-5.93 3.918-5.924-3.918-5.93 3.918-5.921-3.918-5.931 3.918-5.925-3.918-5.929 3.918-5.924-3.918-4.592 3.038v76.79h56.6v-76.79l-4.595-3.038z"/>
        <g>
            <path stroke="#FFF" stroke-linejoin="round" stroke-width="2.346" d="M98.829 27.107V51.94c0 1.29-.746 3.092-1.659 4.005l-8.751 8.753"/>
            <path stroke="#FFF" stroke-width="2.346" d="M71.994 40.354S71.7 32.727 77.42 29.5v-3.176"/>
            <path stroke="#FFF" stroke-linecap="round" stroke-linejoin="round" stroke-width="2.346" d="M102.932 5.441v20.797H74.09V16.64"/>
            <path fill="#3EBEE5" d="M92.865 43.438L78.15 58.153c-.457.458-1.29.573-1.853.256 0 0-6.603-3.724 2.097-12.427 0 0-2.59-11.393 7.382-13.493"/>
            <path stroke="#FFF" stroke-linecap="round" stroke-linejoin="round" stroke-width="2.346" d="M92.865 43.438L78.15 58.153c-.457.458-1.29.573-1.853.256 0 0-6.603-3.724 2.097-12.427 0 0-2.59-11.393 7.382-13.493"/>
            <path stroke="#FFF" stroke-linejoin="round" stroke-width="2.346" d="M18.687 136.907V110.77c0-1.29.746-3.093 1.659-4.006l8.752-8.752"/>
            <path stroke="#FFF" stroke-width="2.346" d="M45.523 122.356s.293 7.626-5.427 10.852v3.177"/>
            <path stroke="#FFF" stroke-linecap="round" stroke-linejoin="round" stroke-width="2.346" d="M14.804 159.018V136.62h28.842v9.599"/>
            <g>
                <path fill="#3EC2E5" d="M24.651 119.272l14.714-14.715c.457-.458 1.29-.573 1.853-.256 0 0 6.603 3.724-2.097 12.427 0 0 2.59 11.392-7.382 13.492"/>
                <path stroke="#FFF" stroke-linecap="round" stroke-linejoin="round" stroke-width="2.346" d="M24.651 119.272l14.714-14.715c.457-.458 1.29-.573 1.853-.256 0 0 6.603 3.724-2.097 12.427 0 0 2.59 11.392-7.382 13.492"/>
            </g>
        </g>
    </g>
</svg>
