<svg xmlns="http://www.w3.org/2000/svg" width="72" height="72" viewBox="0 0 72 72">
    <g fill="none" fill-rule="evenodd">
        <path d="M0 0h72v72H0z"/>
        <path fill="#FFF" d="M13.718 65.25H57.12V10.526H13.718z"/>
        <path fill="#FFF" d="M19.379 59.59h31.137V13.356H19.38z"/>
        <path fill="#3EB5E5" d="M57.121 66.194H13.718a.943.943 0 0 1-.944-.944V10.524c0-.522.422-.943.944-.943H25.04v1.887H14.661v52.838h41.516V11.468H45.798V9.58h11.323c.522 0 .944.421.944.943V65.25a.943.943 0 0 1-.944.944z"/>
        <path fill="#FFF" d="M25.04 16.186h20.758V6.751H25.04z"/>
        <path fill="#3EB5E5" d="M25.984 15.242h18.87V7.694h-18.87v7.548zm19.814 1.887H25.04a.943.943 0 0 1-.943-.944V6.75c0-.522.422-.944.943-.944h20.758c.522 0 .944.422.944.944v9.435a.943.943 0 0 1-.944.944z"/>
        <path fill="#3EB5E5" d="M51.46 60.532H19.379a.943.943 0 0 1-.944-.943v-45.29c0-.522.422-.944.944-.944h5.662v1.887h-4.718v43.403h30.193V15.242h-4.719v-1.887h5.663c.521 0 .943.422.943.943v45.29a.943.943 0 0 1-.943.944M42.024 13.355h-13.21a.943.943 0 0 1-.943-.944v-2.83h1.887v1.887h11.323V9.58h1.887v2.83a.943.943 0 0 1-.944.944"/>
        <path stroke="#7BE3EF" stroke-linecap="round" stroke-width="1.887" d="M24.097 36H46.16M24.097 41.806H46.16M24.097 24.387H46.16M24.097 30.194H46.16M24.097 47.613h9.29"/>
    </g>
</svg>
