<svg xmlns="http://www.w3.org/2000/svg" xmlns:xlink="http://www.w3.org/1999/xlink" width="72" height="72" viewBox="0 0 72 72">
    <defs>
        <path id="a" d="M0 0h1024v507H0z"/>
        <radialGradient id="b" cx="11.107%" cy="126.907%" r="107.753%" fx="11.107%" fy="126.907%" gradientTransform="scale(.529 1) rotate(19.248 .16 1.56)">
            <stop offset="0%" stop-color="#3EB5E5"/>
            <stop offset="100%" stop-color="#FFF"/>
        </radialGradient>
        <radialGradient id="d" cx="-31.977%" cy="0%" r="119.879%" fx="-31.977%" fy="0%" gradientTransform="matrix(.52385 .14235 -.07534 .98982 -.152 .046)">
            <stop offset="0%" stop-color="#3EB5E5"/>
            <stop offset="100%" stop-color="#3EDAE5"/>
        </radialGradient>
        <filter id="e" width="117.5%" height="133.1%" x="-8.8%" y="-16.6%" filterUnits="objectBoundingBox">
            <feGaussianBlur in="SourceGraphic" stdDeviation="10"/>
        </filter>
    </defs>
    <g fill="none" fill-rule="evenodd">
        <g transform="translate(-839 -150)">
            <mask id="c" fill="#fff">
                <use xlink:href="#a"/>
            </mask>
            <path fill="url(#b)" d="M-474 104l362.01 383L250 104z" mask="url(#c)" opacity=".9" transform="matrix(1 0 0 -1 0 591)"/>
            <path fill="url(#d)" d="M879-49l171.004 181L1221-49z" filter="url(#e)" mask="url(#c)" opacity=".2"/>
            <path fill="#3EB5E5" d="M351 412l57.001 60L465 412z" mask="url(#c)" opacity=".1" transform="matrix(1 0 0 -1 0 884)"/>
            <path fill="#FC0" d="M58 137l32 34 32-34z" mask="url(#c)" opacity=".2"/>
            <path fill="#FC0" d="M996 401l26 28 26-28z" mask="url(#c)" opacity=".2" transform="matrix(1 0 0 -1 0 830)"/>
        </g>
        <path fill="#FFF" d="M41.03 13.686c.804 0 4.97-6.993 5.888-8.102.319-.386.382-.475.141-.75-.253-.287-.788-.208-1.387-.049-1.119.301-2.5.012-4.06-.403-3.12-.83-7.62-1.988-9.43 1.043-.176.293-.055.075.293.43.95.97 4.949 7.83 5.764 7.83h2.792z"/>
        <path stroke="#231F20" stroke-width="2.266" d="M41.03 13.686c.804 0 4.97-6.993 5.888-8.102.319-.386.382-.475.141-.75-.253-.287-.788-.208-1.387-.049-1.119.301-2.5.012-4.06-.403-3.12-.83-7.62-1.988-9.43 1.043-.176.293-.055.075.293.43.95.97 4.949 7.83 5.764 7.83h2.792z"/>
        <path fill="#FC0" d="M37.147 13.178c-8.932 4.786-11.308 13.204-12.226 17.138-.243 1.04-.569 2.775-.571 4.711.004 9.215 7.3 16.684 16.298 16.684 9 0 16.297-7.474 16.297-16.692 0-2.06-.127-3.66-.371-4.703-.918-3.934-4.136-11.995-12.833-17.274-2.543.34-6.594.136-6.594.136zM24.35 35.05v-.022-.008.03z"/>
        <path stroke="#231F20" stroke-width="2.173" d="M37.147 13.178c-8.932 4.786-11.308 13.204-12.226 17.138-.243 1.04-.569 2.775-.571 4.711.004 9.215 7.3 16.684 16.298 16.684 9 0 16.297-7.474 16.297-16.692 0-2.06-.127-3.66-.371-4.703-.918-3.934-4.136-11.995-12.833-17.274-2.543.34-6.594.136-6.594.136zM24.35 35.05v-.022-.008.03z"/>
        <path fill="#FFF" d="M55.61 42.283l-6.38 3.03-.35.133c-.453-.807-1.223-1.34-2.295-1.34h-6.508c-1.492 0-3.76-2.173-5.557-2.173h-6.376c-2.622 0-4.965 2.15-6.284 3.382-2.04 2.041-6.138 6.165-6.138 6.165l9.973 9.997c1.63-1.631 3.549-3.249 5.214-3.249h13.018c2.033 0 4.055-.624 5.49-2.063l10.796-10.81 3.067-7.682c-1.869-1.872-6.136.128-7.67 4.61"/>
        <path stroke="#231F20" stroke-linecap="round" stroke-linejoin="round" stroke-width="2.173" d="M35.249 50.624h11.336c1.797 0 2.766-1.418 2.766-3.217v-.02c0-1.802-.969-3.281-2.766-3.281h-6.509c-1.491 0-3.76-2.173-5.556-2.173h-6.377c-2.622 0-4.964 2.15-6.284 3.38-2.04 2.043-6.136 6.167-6.136 6.167l9.971 9.997c1.63-1.632 3.55-3.248 5.216-3.248h13.017c2.032 0 4.054-.625 5.491-2.063l10.795-10.81 3.068-7.683c-1.87-1.872-6.137.129-7.67 4.61l-6.381 3.03"/>
        <path fill="#FC0" d="M14.638 48.451L8.129 54.97l14.102 14.122 6.508-6.518z"/>
        <path stroke="#231F20" stroke-linejoin="round" stroke-width="2.173" d="M14.638 48.451L8.129 54.97l14.102 14.122 6.508-6.518z"/>
        <path stroke="#231F20" stroke-linecap="round" stroke-width="2.173" d="M16.807 56.056l-2.17-2.173"/>
        <text fill="#231F20" font-family="HelveticaNeue-Bold, Helvetica Neue" font-size="10.362" font-weight="bold" transform="translate(8.129 2.323)">
            <tspan x="25.274" y="30.71">Rp</tspan>
        </text>
        <path stroke="#231F20" stroke-linecap="round" stroke-width="2.173" d="M35.384 13.009s14.374 1.63 14.374-3.803"/>
        <g>
            <path fill="#FFF" d="M41.03 13.686c.804 0 4.97-6.993 5.888-8.102.319-.386.382-.475.141-.75-.253-.287-.788-.208-1.387-.049-1.119.301-2.5.012-4.06-.403-3.12-.83-7.62-1.988-9.43 1.043-.176.293-.055.075.293.43.95.97 4.949 7.83 5.764 7.83h2.792z"/>
            <path stroke="#3EB5E5" stroke-width="2.266" d="M41.03 13.686c.804 0 4.97-6.993 5.888-8.102.319-.386.382-.475.141-.75-.253-.287-.788-.208-1.387-.049-1.119.301-2.5.012-4.06-.403-3.12-.83-7.62-1.988-9.43 1.043-.176.293-.055.075.293.43.95.97 4.949 7.83 5.764 7.83h2.792z"/>
            <path fill="#7BE3EF" d="M37.147 13.178c-8.932 4.786-11.308 13.204-12.226 17.138-.243 1.04-.569 2.775-.571 4.711.004 9.215 7.3 16.684 16.298 16.684 9 0 16.297-7.474 16.297-16.692 0-2.06-.127-3.66-.371-4.703-.918-3.934-4.136-11.995-12.833-17.274-2.543.34-6.594.136-6.594.136zM24.35 35.05v-.022-.008.03z"/>
            <path stroke="#3EB5E5" stroke-width="2.173" d="M37.147 13.178c-8.932 4.786-11.308 13.204-12.226 17.138-.243 1.04-.569 2.775-.571 4.711.004 9.215 7.3 16.684 16.298 16.684 9 0 16.297-7.474 16.297-16.692 0-2.06-.127-3.66-.371-4.703-.918-3.934-4.136-11.995-12.833-17.274-2.543.34-6.594.136-6.594.136zM24.35 35.05v-.022-.008.03z"/>
            <path fill="#FFF" d="M55.61 42.283l-6.38 3.03-.35.133c-.453-.807-1.223-1.34-2.295-1.34h-6.508c-1.492 0-3.76-2.173-5.557-2.173h-6.376c-2.622 0-4.965 2.15-6.284 3.382-2.04 2.041-6.138 6.165-6.138 6.165l9.973 9.997c1.63-1.631 3.549-3.249 5.214-3.249h13.018c2.033 0 4.055-.624 5.49-2.063l10.796-10.81 3.067-7.682c-1.869-1.872-6.136.128-7.67 4.61"/>
            <path stroke="#3EB5E5" stroke-linecap="round" stroke-linejoin="round" stroke-width="2.173" d="M35.249 50.624h11.336c1.797 0 2.766-1.418 2.766-3.217v-.02c0-1.802-.969-3.281-2.766-3.281h-6.509c-1.491 0-3.76-2.173-5.556-2.173h-6.377c-2.622 0-4.964 2.15-6.284 3.38-2.04 2.043-6.136 6.167-6.136 6.167l9.971 9.997c1.63-1.632 3.55-3.248 5.216-3.248h13.017c2.032 0 4.054-.625 5.491-2.063l10.795-10.81 3.068-7.683c-1.87-1.872-6.137.129-7.67 4.61l-6.381 3.03"/>
            <path fill="#FFF" d="M14.638 48.451L8.129 54.97l14.102 14.122 6.508-6.518z"/>
            <path stroke="#3EB5E5" stroke-linejoin="round" stroke-width="2.173" d="M14.638 48.451L8.129 54.97l14.102 14.122 6.508-6.518z"/>
            <path stroke="#3EB5E5" stroke-linecap="round" stroke-width="2.173" d="M16.807 56.056l-2.17-2.173"/>
            <text fill="#FFF" font-family="HelveticaNeue-Bold, Helvetica Neue" font-size="10.362" font-weight="bold" transform="translate(8.129 2.323)">
                <tspan x="25.274" y="30.71">Rp</tspan>
            </text>
            <path stroke="#3EB5E5" stroke-linecap="round" stroke-width="2.173" d="M35.384 13.009s14.374 1.63 14.374-3.803"/>
        </g>
    </g>
</svg>
