<svg xmlns="http://www.w3.org/2000/svg" width="72" height="72" viewBox="0 0 72 72">
    <g fill="none" fill-rule="evenodd" transform="translate(8 8)">
        <circle cx="28" cy="28" r="28.726" stroke="#DFE2E4" stroke-width="1.452"/>
        <path fill="#FFF" d="M46.06 42.24a1.66 1.66 0 0 1-1.66 1.65H11.434a1.66 1.66 0 0 1-1.659-1.65V23.326c0-.907.747-1.65 1.66-1.65H44.4c.913 0 1.66.743 1.66 1.65V42.24z"/>
        <path stroke="#DFE2E4" stroke-width="1.328" d="M46.06 42.24a1.66 1.66 0 0 1-1.66 1.65H11.434a1.66 1.66 0 0 1-1.659-1.65V23.326c0-.907.747-1.65 1.66-1.65H44.4c.913 0 1.66.743 1.66 1.65V42.24z"/>
        <path fill="#FFF" d="M16.412 38.941a1.66 1.66 0 0 1-1.66-1.65v-9.016c0-.907.747-1.65 1.66-1.65h23.01c.913 0 1.66.743 1.66 1.65v9.017a1.66 1.66 0 0 1-1.66 1.65"/>
        <path stroke="#DFE2E4" stroke-width="1.328" d="M23.403 38.941h16.02a1.66 1.66 0 0 0 1.66-1.65v-9.016a1.66 1.66 0 0 0-1.66-1.65H16.412a1.66 1.66 0 0 0-1.66 1.65v9.017c0 .907.747 1.65 1.66 1.65h6.991z"/>
        <path fill="#FFF" d="M9 17.388c0-.907.747-1.65 1.66-1.65h34.515c.913 0 1.66.743 1.66 1.65v6.488c0 3.266-2.689 5.938-5.974 5.938H14.974C11.688 29.814 9 27.142 9 23.876v-6.488z"/>
        <path stroke="#DFE2E4" stroke-width="1.328" d="M9 17.388c0-.907.747-1.65 1.66-1.65h34.515c.913 0 1.66.743 1.66 1.65v6.488c0 3.266-2.689 5.938-5.974 5.938H14.974C11.688 29.814 9 27.142 9 23.876v-6.488zM20.726 15.519v-1.87c0-.907.747-1.649 1.66-1.649h11.063c.913 0 1.66.742 1.66 1.65v1.869"/>
        <path fill="#FFF" d="M30.905 30.914a.498.498 0 0 1-.498.495h-4.98a.498.498 0 0 1-.497-.495v-2.2c0-.272.224-.494.498-.494h4.979c.273 0 .498.222.498.495v2.199z"/>
        <path stroke="#DFE2E4" stroke-width="1.328" d="M30.905 30.914a.498.498 0 0 1-.498.495h-4.98a.498.498 0 0 1-.497-.495v-2.2c0-.272.224-.494.498-.494h4.979c.273 0 .498.222.498.495v2.199z"/>
    </g>
</svg>
