<svg xmlns="http://www.w3.org/2000/svg" xmlns:xlink="http://www.w3.org/1999/xlink" width="72" height="72" viewBox="0 0 72 72">
    <defs>
        <circle id="a" cx="33.447" cy="33.285" r="32.516"/>
    </defs>
    <g fill="none" fill-rule="evenodd" transform="translate(3 2)">
        <mask id="b" fill="#fff">
            <use xlink:href="#a"/>
        </mask>
        <circle cx="33.447" cy="33.285" r="33.368" stroke="#3EB5E5" stroke-width="1.704"/>
        <g mask="url(#b)">
            <path fill="#FFF" d="M54.636 48.666c0 1.06-.895 1.928-1.988 1.928H13.154c-1.093 0-1.988-.868-1.988-1.928V26.564c0-1.06.895-1.927 1.988-1.927h39.494c1.093 0 1.988.867 1.988 1.927v22.102z"/>
            <path stroke="#3EB5E5" stroke-width="1.59" d="M54.636 48.666c0 1.06-.895 1.928-1.988 1.928H13.154c-1.093 0-1.988-.868-1.988-1.928V26.564c0-1.06.895-1.927 1.988-1.927h39.494c1.093 0 1.988.867 1.988 1.927v22.102z"/>
            <path fill="#FFF" d="M19.118 44.811c-1.094 0-1.988-.867-1.988-1.927V32.347c0-1.06.894-1.928 1.988-1.928h27.566c1.093 0 1.988.868 1.988 1.928v10.537c0 1.06-.895 1.927-1.988 1.927"/>
            <path stroke="#7BE3EF" stroke-width="1.59" d="M27.493 44.811h19.191c1.093 0 1.988-.867 1.988-1.927V32.347c0-1.06-.895-1.928-1.988-1.928H19.118c-1.094 0-1.988.868-1.988 1.928v10.537c0 1.06.894 1.927 1.988 1.927h8.375z"/>
            <path fill="#FFF" d="M10.239 19.625c0-1.06.894-1.927 1.988-1.927h41.348c1.093 0 1.988.867 1.988 1.927v7.582c0 3.816-3.22 6.939-7.156 6.939H17.395c-3.936 0-7.156-3.123-7.156-6.94v-7.58z"/>
            <path stroke="#3EB5E5" stroke-width="1.59" d="M10.239 19.625c0-1.06.894-1.927 1.988-1.927h41.348c1.093 0 1.988.867 1.988 1.927v7.582c0 3.816-3.22 6.939-7.156 6.939H17.395c-3.936 0-7.156-3.123-7.156-6.94v-7.58zM24.286 17.44v-2.183c0-1.06.895-1.928 1.988-1.928h13.254c1.093 0 1.988.867 1.988 1.928v2.184"/>
            <path fill="#FFF" d="M36.48 35.43a.59.59 0 0 1-.597.58h-5.965a.59.59 0 0 1-.596-.58v-2.57a.59.59 0 0 1 .596-.577h5.965a.59.59 0 0 1 .597.578v2.57z"/>
            <path stroke="#3EB5E5" stroke-width="1.59" d="M36.48 35.43a.59.59 0 0 1-.597.58h-5.965a.59.59 0 0 1-.596-.58v-2.57a.59.59 0 0 1 .596-.577h5.965a.59.59 0 0 1 .597.578v2.57z"/>
        </g>
    </g>
</svg>
