<svg xmlns="http://www.w3.org/2000/svg" width="52" height="52" viewBox="0 0 52 52">
    <g fill="none" fill-rule="evenodd">
        <path fill="#FFF" d="M24.96 39.386c0 .996-.808 1.804-1.804 1.804H6.416a1.805 1.805 0 0 1-1.803-1.804V5.706c0-.997.808-1.804 1.804-1.804h16.74c.995 0 1.803.807 1.803 1.804v33.68z"/>
        <path stroke="#3EB5E5" stroke-width="1.804" d="M24.96 39.386c0 .996-.808 1.804-1.804 1.804H6.416a1.805 1.805 0 0 1-1.803-1.804V5.706c0-.997.808-1.804 1.804-1.804h16.74c.995 0 1.803.807 1.803 1.804v33.68z"/>
        <path fill="#FFF" d="M4.613 37.582H24.96V7.51H4.613z"/>
        <path stroke="#3EB5E5" stroke-width="1.804" d="M4.613 37.582H24.96V7.51H4.613z"/>
        <path fill="#3EB5E5" d="M3.636 10.67A.636.636 0 0 1 3 10.032v-.635a.636.636 0 0 1 1.272 0v.635c0 .351-.285.636-.636.636M3.636 13.213A.636.636 0 0 1 3 12.577v-.636a.636.636 0 0 1 1.272 0v.636c0 .35-.285.636-.636.636M3.636 15.756A.636.636 0 0 1 3 15.12v-.636a.636.636 0 0 1 1.272 0v.636c0 .351-.285.636-.636.636"/>
        <path fill="#FFF" d="M47.63 40.683l-1.482-6.593-.741-3.927c-.89-4.334-2.926-6.446-6.187-6.446H22.921c-3.26 0-5.297 2.112-6.185 6.483l-.742 3.89-1.482 6.668c-.518 2.963.593 5.408 2.89 6.297.63.26 1.26.37 1.889.37 1.89 0 3.593-1.11 4.63-3.074l2.815-5.445h8.632l2.556 4.89.296.555c1.334 2.63 3.964 3.704 6.52 2.704 2.297-.889 3.408-3.334 2.89-6.372"/>
        <path stroke="#3EB5E5" stroke-linecap="round" stroke-linejoin="round" stroke-width="1.804" d="M47.63 40.683l-1.482-6.593-.741-3.927c-.89-4.334-2.926-6.446-6.187-6.446H22.921c-3.26 0-5.297 2.112-6.185 6.483l-.742 3.89-1.482 6.668c-.518 2.963.593 5.408 2.89 6.297.63.26 1.26.37 1.889.37 1.89 0 3.593-1.11 4.63-3.074l2.815-5.445h8.632l2.556 4.89.296.555c1.334 2.63 3.964 3.704 6.52 2.704 2.297-.889 3.408-3.334 2.89-6.372z"/>
        <path fill="#7BE3EF" d="M26.7 31.311c0 .445-.334.778-.74.778h-1.446v1.556c0 .445-.333.778-.741.778-.407 0-.74-.333-.74-.778v-1.556h-1.445c-.408 0-.741-.333-.741-.778 0-.444.333-.777.741-.777h1.444v-1.556c0-.445.334-.778.741-.778.408 0 .741.333.741.778v1.556h1.445c.407 0 .74.37.74.777"/>
        <path stroke="#7BE3EF" stroke-width=".902" d="M26.7 31.311c0 .445-.334.778-.74.778h-1.446v1.556c0 .445-.333.778-.741.778-.407 0-.74-.333-.74-.778v-1.556h-1.445c-.408 0-.741-.333-.741-.778 0-.444.333-.777.741-.777h1.444v-1.556c0-.445.334-.778.741-.778.408 0 .741.333.741.778v1.556h1.445c.407 0 .74.37.74.777z"/>
        <path fill="#7BE3EF" d="M39.466 28.973a1.098 1.098 0 1 1-2.195 0 1.098 1.098 0 0 1 2.195 0M39.466 33.66a1.098 1.098 0 1 1-2.195 0 1.098 1.098 0 0 1 2.195 0M36.026 30.219a1.098 1.098 0 1 1 0 2.195 1.098 1.098 0 0 1 0-2.195M40.712 30.219a1.098 1.098 0 1 1 0 2.195 1.098 1.098 0 0 1 0-2.195"/>
        <path stroke="#7BE3EF" stroke-linecap="round" stroke-linejoin="round" stroke-width="1.804" d="M27.596 35.877h6.426"/>
        <path stroke="#3EB5E5" stroke-linecap="round" stroke-linejoin="round" stroke-width="1.804" d="M31.07 23.717v-3.406s-.582-5.052 5.054-5.052c5.635 0 9.13-2.28 9.13-10.209"/>
        <path fill="#FFF" d="M21.765 10.67l-9.02 10.842"/>
        <path stroke="#7BE3EF" stroke-linecap="round" stroke-linejoin="round" stroke-width="1.804" d="M21.765 10.67l-9.02 10.842"/>
        <path fill="#FFF" d="M17.306 10.67l-4.51 5.421"/>
        <path stroke="#7BE3EF" stroke-linecap="round" stroke-linejoin="round" stroke-width="1.804" d="M17.306 10.67l-4.51 5.421"/>
        <path fill="#7BE3EF" d="M11.844 24.124a.902.902 0 1 1-1.805 0 .902.902 0 0 1 1.805 0"/>
    </g>
</svg>
