<svg xmlns="http://www.w3.org/2000/svg" width="130" height="163" viewBox="0 0 130 163">
    <g fill="none" fill-rule="evenodd">
        <path stroke="#3EB5E5" stroke-linecap="round" stroke-width="2.421" d="M99.605 128.128h-37.02M43.271 152.326v4.84M93.167 121.675h12.876M115.7 121.675h-4.829M101.214 18.43H88.338M73.852 10.365v-4.84M32.005 144.26H19.129"/>
        <path d="M45.329 122.036s.294 7.69-5.452 10.944v11.093l-21.505-4.735v-31.35l10.46-10.502M71.919 39.345s-.295-7.69 5.451-10.944V17.308l21.506 4.735v31.35l-10.46 10.502"/>
        <path fill="#7BE3EF" d="M56.298 59.018h22.135v-2.653H56.298zM56.298 64.985h17.44v-2.652h-17.44zM56.298 78.915h22.135v-2.652H56.298zM56.298 84.883h17.44v-2.65h-17.44zM56.298 97.486h22.135v-2.65H56.298zM56.298 109.14h22.135v-2.655H56.298zM56.298 103.17h17.44v-2.653h-17.44z"/>
        <path stroke="#7BE3EF" stroke-width="1.614" d="M37.866 66.698H47.96v-9.983H37.866zM37.866 85.794H47.96v-9.983H37.866zM37.866 104.934H47.96v-9.98H37.866z"/>
        <path fill="#3EB5E5" d="M76.086 40.99l5.956-3.952 7.299 4.839v81.51H27.119v-81.51l7.296-4.84 5.951 3.952 5.956-3.951 5.95 3.951 5.959-3.951 5.948 3.951 5.956-3.951 5.951 3.951zm5.956-.756l-5.956 3.952-5.95-3.952-5.957 3.952-5.948-3.952-5.958 3.952-5.951-3.952-5.956 3.952-5.95-3.952-4.613 3.065v77.435h56.853V43.299l-4.614-3.065z"/>
        <g>
            <path stroke="#3EB5E5" stroke-linejoin="round" stroke-width="2.363" d="M98.875 25.954v25.074c0 1.302-.75 3.119-1.667 4.04l-8.79 8.825"/>
            <path stroke="#3EB5E5" stroke-width="2.363" d="M71.919 39.345s-.295-7.69 5.451-10.944v-3.269"/>
            <path stroke="#3EB5E5" stroke-linecap="round" stroke-linejoin="round" stroke-width="2.363" d="M102.996 4.14v20.97H74.025v-9.678"/>
            <path fill="#FFF" d="M92.884 42.455l-14.78 14.839c-.46.461-1.296.577-1.862.258 0 0-6.632-3.755 2.107-12.532 0 0-2.602-11.488 7.415-13.605"/>
            <path stroke="#3EB5E5" stroke-linecap="round" stroke-linejoin="round" stroke-width="2.363" d="M92.884 42.455l-14.78 14.839c-.46.461-1.296.577-1.862.258 0 0-6.632-3.755 2.107-12.532 0 0-2.602-11.488 7.415-13.605"/>
            <path stroke="#3EB5E5" stroke-linejoin="round" stroke-width="2.363" d="M18.373 135.427v-25.074c0-1.302.75-3.119 1.666-4.04l8.791-8.825"/>
            <path stroke="#3EB5E5" stroke-width="2.363" d="M45.329 122.036s.294 7.69-5.452 10.944v3.269"/>
            <path stroke="#3EB5E5" stroke-linecap="round" stroke-linejoin="round" stroke-width="2.363" d="M14.472 159.006v-22.585h28.972v9.68"/>
            <g>
                <path fill="#FFF" d="M24.364 118.926l14.78-14.839c.459-.461 1.296-.577 1.861-.258 0 0 6.632 3.756-2.107 12.532 0 0 2.602 11.488-7.414 13.606"/>
                <path stroke="#3EB5E5" stroke-linecap="round" stroke-linejoin="round" stroke-width="2.363" d="M24.364 118.926l14.78-14.839c.459-.461 1.296-.577 1.861-.258 0 0 6.632 3.756-2.107 12.532 0 0 2.602 11.488-7.414 13.606"/>
            </g>
        </g>
    </g>
</svg>
