<svg xmlns="http://www.w3.org/2000/svg" width="52" height="52" viewBox="0 0 52 52">
    <g fill="none" fill-rule="evenodd">
        <path d="M11.762 43.953h28.476V8.048H11.762z"/>
        <path fill="#FFF" d="M15.476 40.239h20.429V9.905H15.476z"/>
        <path fill="#3EB5E5" d="M40.238 44.571H11.762a.618.618 0 0 1-.62-.619V8.048c0-.343.278-.62.62-.62h7.428v1.239h-6.809v34.666h27.238V8.667h-6.81V7.429h7.43c.341 0 .618.276.618.619v35.904a.618.618 0 0 1-.619.62z"/>
        <path fill="#FFF" d="M19.19 11.763h13.62V5.572H19.19z"/>
        <path fill="#3EB5E5" d="M19.81 11.143h12.38V6.19H19.81v4.953zm13 1.238H19.19a.618.618 0 0 1-.619-.62v-6.19c0-.342.277-.619.62-.619H32.81c.342 0 .619.277.619.62v6.19a.618.618 0 0 1-.62.619z"/>
        <path fill="#3EB5E5" d="M36.524 40.857H15.476a.618.618 0 0 1-.619-.619V10.524c0-.343.277-.62.62-.62h3.714v1.239h-3.096v28.476h19.81V11.143h-3.096V9.905h3.715c.342 0 .619.276.619.619v29.714a.618.618 0 0 1-.62.62"/>
        <path fill="#3EB5E5" d="M30.333 9.905h-8.666a.618.618 0 0 1-.62-.62V7.43h1.239v1.238h7.428V7.429h1.238v1.857a.618.618 0 0 1-.619.619"/>
        <path stroke="#3EB5E5" stroke-width="1.238" d="M18.571 17.334H33.43M18.571 21.048h11.143"/>
        <path fill="#7BE3EF" d="M18.572 30.952h4.952v4.952h-4.952z"/>
    </g>
</svg>
