<svg xmlns="http://www.w3.org/2000/svg" width="216" height="120" viewBox="0 0 216 120">
    <g fill="none" fill-rule="evenodd">
        <path stroke="#FFF" stroke-linecap="round" stroke-width="3.095" d="M131.66 84.84h13.17m0 5.255v6.645c0 3.678-2.947 6.659-6.582 6.659-3.641 0-6.588-2.98-6.588-6.659"/>
        <path d="M138.248 103.399c-3.642 0-6.588-2.98-6.588-6.66V24.266H74.45v56.142l.14 9.156c0 7.641 6.128 13.836 13.686 13.836h50.111"/>
        <g stroke="#FFF" stroke-linecap="round" stroke-linejoin="round">
            <path stroke-width="3.095" d="M60.27 74.484a17.897 17.897 0 0 0 14.27 7.066c9.887 0 17.902-7.984 17.902-17.833 0-9.85-8.015-17.834-17.901-17.834-9.887 0-17.902 7.985-17.902 17.834"/>
            <path stroke-width="3.938" d="M81.477 58.367l-10.07 10.7-3.962-4.21"/>
        </g>
        <path stroke="#FFF" stroke-linecap="round" stroke-linejoin="round" stroke-width="3.095" d="M74.59 89.563c0 7.641 6.128 13.836 13.686 13.836h50.111c-3.78 0-6.727-2.98-6.727-6.66V24.266H74.45V39.72M109.449 62.733h12.766M109.449 71.311h12.766M109.449 79.89h12.753M99.516 89.282h23.599"/>
        <path fill="#7BE3EF" d="M108.793 48.412h14.322V34.526h-14.322z"/>
        <path stroke="#7BE3EF" stroke-linecap="round" stroke-linejoin="round" stroke-width="2.685" d="M75.787 109.638h35.804M65.59 110.083h5.37"/>
        <path stroke="#FFF" stroke-linecap="round" stroke-linejoin="round" stroke-width="2.685" d="M147.938 102.95h5.37M158.679 102.95H173M140.777 108.894h20.885M66.68 37.808H48.777M55.342 32.16h-21.16"/>
    </g>
</svg>
