<?xml version="1.0" encoding="UTF-8"?>
<svg width="62px" height="62px" viewBox="0 0 62 62" version="1.1" xmlns="http://www.w3.org/2000/svg" xmlns:xlink="http://www.w3.org/1999/xlink">
    <!-- Generator: Sketch 47 (45396) - http://www.bohemiancoding.com/sketch -->
    <title>art_e-ktp</title>
    <desc>Created with Sketch.</desc>
    <defs></defs>
    <g id="Symbols" stroke="none" stroke-width="1" fill="none" fill-rule="evenodd">
        <g id="3_syarat" transform="translate(-97.000000, 0.000000)">
            <g id="Group-21">
                <g transform="translate(1.000000, 0.000000)">
                    <g id="art_e-ktp" transform="translate(96.000000, 0.000000)">
                        <g transform="translate(3.384615, 2.384615)">
                            <circle id="Oval-3-Copy" stroke="#3EB5E5" stroke-width="1.46774194" cx="28" cy="28" r="28.733871"></circle>
                            <g id="Group-5" transform="translate(6.000000, 14.000000)">
                                <g id="Group-20">
                                    <rect id="Rectangle-13" stroke="#3EB5E5" stroke-width="1.5" x="0.75" y="0.75" width="41.4230769" height="27.1153846" rx="2.71093117"></rect>
                                    <g id="Page-1" transform="translate(23.615385, 5.615385)" stroke="#7BE3EF">
                                        <path d="M2.7886875,0.720889474 L12.294,0.720889474 C13.4161875,0.720889474 14.3265,1.58967895 14.3265,2.66067895 L14.3265,14.9838895 C14.3265,16.0557842 13.4161875,16.9236789 12.294,16.9236789 L2.7886875,16.9236789 C1.6665,16.9236789 0.75525,16.0557842 0.75525,14.9838895 L0.75525,2.66067895 C0.75525,1.58967895 1.6665,0.720889474 2.7886875,0.720889474 Z" id="Stroke-1" stroke-width="1.4834625"></path>
                                        <path d="M2.7886875,0.720889474 L12.294,0.720889474 C13.4161875,0.720889474 14.3265,1.58967895 14.3265,2.66067895 L14.3265,14.9838895 C14.3265,16.0557842 13.4161875,16.9236789 12.294,16.9236789 L2.7886875,16.9236789 C1.6665,16.9236789 0.75525,16.0557842 0.75525,14.9838895 L0.75525,2.66067895 C0.75525,1.58967895 1.6665,0.720889474 2.7886875,0.720889474 Z" id="Stroke-3" stroke-width="1.4834625"></path>
                                        <path d="M7.54209375,9.88487368 C9.28115625,9.88487368 10.6892812,8.49803158 10.6892812,6.78818947 C10.6892812,5.07834737 9.28115625,3.69150526 7.54209375,3.69150526 C5.80303125,3.69150526 4.39303125,5.07834737 4.39303125,6.78818947 C4.39303125,8.49803158 5.80303125,9.88487368 7.54209375,9.88487368 Z" id="Stroke-5" stroke-width="1.4834625"></path>
                                        <path d="M13.49025,16.1061579 C13.105875,13.0407895 10.5905625,10.4478421 7.54275,10.4478421 C4.4949375,10.4478421 1.9768125,13.0407895 1.5924375,16.1061579 L1.5905625,16.1025789 C1.914,16.5964737 2.4699375,16.9239474 3.097125,16.9239474 L11.9855625,16.9239474 C12.607125,16.9239474 13.158375,16.6027368 13.4836875,16.1168947 L13.49025,16.1061579 Z" id="Stroke-7" stroke-width="1.44110417" stroke-linecap="round" stroke-linejoin="round"></path>
                                    </g>
                                    <path d="M4.88144796,6.75 L20.0307692,6.75" id="Path-9" stroke="#3EB5E5" stroke-width="1.5" stroke-linecap="round" stroke-linejoin="round"></path>
                                    <path d="M5.04977376,10.75 L15.1493213,10.75" id="Path-9-Copy" stroke="#3EB5E5" stroke-width="1.5" stroke-linecap="round" stroke-linejoin="round"></path>
                                    <path d="M5.04977376,21.75 L15.1493213,21.75" id="Path-9-Copy-2" stroke="#3EB5E5" stroke-width="1.5" stroke-linecap="round" stroke-linejoin="round"></path>
                                </g>
                            </g>
                        </g>
                    </g>
                </g>
            </g>
        </g>
    </g>
</svg>