<svg xmlns="http://www.w3.org/2000/svg" width="52" height="52" viewBox="0 0 52 52">
    <g fill="none" fill-rule="evenodd">
        <path fill="#FFF" d="M49.737 35.478l-14.312 2.768L6.31 43.878 2.99 26.191l43.429-8.4 2.28 12.16.727 3.872z"/>
        <path stroke="#3EB5E5" stroke-linecap="round" stroke-linejoin="round" stroke-width="1.412" d="M49.737 35.478l-14.312 2.768L6.31 43.878 2.99 26.191l43.429-8.4 2.28 12.16.727 3.872z"/>
        <path fill="#FFF" d="M35.789 19.847L46.42 17.79l2.28 12.16.726 3.872.31 1.655-3.504.678-7.127 1.378"/>
        <path stroke="#3EB5E5" stroke-linecap="round" stroke-linejoin="round" stroke-width="1.412" d="M35.789 19.847L46.42 17.79l2.28 12.16.726 3.872.31 1.655-3.504.678-7.127 1.378"/>
        <path fill="#7BE3EF" d="M43.938 24.97a.332.332 0 0 1 .054-.345c.224-.32.446-.639.648-1.013.104-.14.185-.336.251-.493.048-.117.076-.29.085-.423.01-.135-.073-.262-.205-.274-.076-.033-.17-.026-.28.019-.18.107-.362.212-.48.393-.136.218-.295.38-.432.6-.12.178-.257.396-.376.576a.283.283 0 0 1-.25.169c-.056.021-.095.005-.188.01-.829-.079-1.714-.136-2.543-.215-.093.006-.172-.027-.266-.02-.092.005-.184.011-.235.128-.102.14-.151.258-.216.414-.05.118.012.19.088.222.038.018.116.05.155.067.517.175.994.335 1.513.512.191.082.4.126.537.23.077.034.14.105.2.178l-.016.039c-.185.336-.355.632-.54.967-.103.14-.185.337-.288.475 0 0-.015.041-.054.024-.04-.016-.076-.033-.132-.01l-.513-.082c-.092.006-.185.013-.273.114-.031.077-.103.14-.137.218-.047.118-.026.174.052.206.039.017.06.073.138.105.49.35.943.682 1.416 1.07.038.015.076.033.115.05.04.016.133.01.187-.013.11-.045.158-.163.17-.298.01-.132-.037-.243-.08-.355-.083-.128-.15-.295-.232-.422-.038-.018-.023-.057.015-.04l.982-1.377.018-.039c.058.072.097.089.159.161.138.105.26.25.342.377.288.4.614.817.885 1.257.099.088.143.2.243.289.083.126.174.121.3.038.02-.04.056-.023.073-.063a.612.612 0 0 0 .218-.414c.009-.134-.034-.245-.077-.357-.285-.628-.55-1.297-.834-1.925-.019-.285-.107-.507-.197-.73"/>
        <path stroke="#3EB5E5" stroke-linecap="round" stroke-linejoin="round" stroke-width="1.412" d="M35.79 19.847l3.315 17.687M7.47 29.951l25.178-4.87M8.115 32.866l25.176-4.87M8.76 35.78l25.177-4.87M9.404 38.694l25.177-4.87"/>
        <path stroke="#7BE3EF" stroke-linecap="round" stroke-linejoin="round" stroke-width="1.412" d="M40.886 32.78l4.945-.956"/>
        <path fill="#FFF" d="M34.483 35.338l-18.904 9.588-13.58-27.62 18.905-9.589z"/>
        <path fill="#7BE3EF" d="M17.799 20.426a.506.506 0 0 1-.064-.53c.2-.563.398-1.126.54-1.76.095-.25.135-.57.166-.829.025-.192-.007-.458-.048-.66-.038-.2-.212-.353-.41-.314-.127-.015-.262.033-.405.146-.22.232-.443.465-.546.78-.111.377-.277.683-.389 1.06-.102.313-.213.69-.315 1.006a.442.442 0 0 1-.302.353c-.07.056-.134.047-.268.097-1.253.231-2.573.52-3.824.753-.136.048-.263.03-.396.08-.136.047-.27.095-.294.289-.096.25-.12.442-.151.7-.025.192.094.273.222.289l.252.031c.831.042 1.6.074 2.431.116.317.04.641.016.887.112.126.017.245.097.364.177l-.009.064c-.134.572-.262 1.078-.397 1.648-.095.25-.134.571-.23.82 0 0-.007.065-.07.057-.065-.008-.127-.016-.198.04l-.785.096c-.135.049-.268.097-.357.28-.015.13-.093.25-.11.38-.023.192.03.264.158.28.064.008.12.08.246.097.861.306 1.66.605 2.516.975.065.007.127.016.19.024s.199-.04.27-.097c.142-.114.166-.304.127-.507-.04-.2-.15-.344-.262-.49-.173-.153-.34-.37-.515-.523-.062-.007-.054-.072.009-.064.294-.812.585-1.623.88-2.436l.008-.064c.119.08.182.088.302.169.245.097.482.258.655.41.587.467 1.234.942 1.813 1.472.18.09.291.234.475.323.174.153.308.104.458-.072.008-.064.072-.056.079-.12.158-.241.183-.434.15-.7-.037-.2-.149-.346-.259-.49-.673-.804-1.338-1.673-2.01-2.478-.142-.41-.364-.7-.584-.99"/>
        <path stroke="#7BE3EF" stroke-linecap="round" stroke-linejoin="round" stroke-width="1.412" d="M25.43 28.953l-9.441 4.782M26.742 31.617l-9.444 4.78"/>
        <path stroke="#3EB5E5" stroke-linecap="round" stroke-linejoin="round" stroke-width="1.412" d="M34.483 35.338l-18.904 9.588-13.58-27.62 18.905-9.589z"/>
        <path fill="#FC0" d="M28.62 18.445l12.41-2.555"/>
        <path stroke="#3EB5E5" stroke-linecap="round" stroke-linejoin="round" stroke-width="1.412" d="M28.62 18.445l12.41-2.555"/>
    </g>
</svg>
