<svg xmlns="http://www.w3.org/2000/svg" width="52" height="52" viewBox="0 0 52 52">
    <g fill="none" fill-rule="evenodd">
        <path fill="#FEC414" d="M38.053 35.399h6.376V41.182c0 1.788-1.427 3.236-3.187 3.236-1.762 0-3.189-1.448-3.189-3.236"/>
        <path stroke="#000" stroke-width="1.498" d="M38.053 35.399h6.376V41.182c0 1.788-1.427 3.236-3.187 3.236-1.762 0-3.189-1.448-3.189-3.236"/>
        <path fill="#FFF" d="M41.242 44.418c-1.763 0-3.189-1.448-3.189-3.236V5.96H10.356v27.284l.068 4.45c0 3.714 2.967 6.724 6.626 6.724h24.26"/>
        <path stroke="#000" stroke-linecap="round" stroke-linejoin="round" stroke-width="1.498" d="M10.356 36.426l.068 1.268c0 3.714 2.967 6.724 6.626 6.724h24.26a3.226 3.226 0 0 1-3.257-3.236V5.96H10.356v8.379M27.3 24.655h6.18M27.3 28.824h6.18M27.3 32.993h6.174M22.491 37.558h11.425"/>
        <path fill="#FEC414" d="M25.113 17.695h8.803v-6.748h-8.803z"/>
        <g stroke="#000" stroke-linecap="round" stroke-linejoin="round" stroke-width="1.192">
            <path d="M3.9 25.253a7.053 7.053 0 1 0 1.41-4.233M5.31 18.2v2.821h2.822"/>
        </g>
    </g>
</svg>
