<svg xmlns="http://www.w3.org/2000/svg" xmlns:xlink="http://www.w3.org/1999/xlink" width="52" height="52" viewBox="0 0 52 52">
    <defs>
        <path id="a" d="M0 37h35.89V.437H0z"/>
    </defs>
    <g fill="none" fill-rule="evenodd">
        <g transform="translate(8 7.564)">
            <mask id="b" fill="#fff">
                <use xlink:href="#a"/>
            </mask>
            <path fill="#000" d="M15.8 27.158l.035-.14a6.142 6.142 0 0 1 2.782-3.746l.381-.23 2.238 2.24a.86.86 0 0 0 1.188-.002l2.236-2.237.38.231a6.255 6.255 0 0 1 2.78 3.741l.036.143H15.8zm2.645-9.83c.748-.747 2.046-.746 2.791-.002.293.293.896.292 1.188 0 .716-.716 2.071-.716 2.79 0 .371.373.576.87.576 1.396 0 .527-.205 1.022-.577 1.394l-3.383 3.385-3.384-3.384a1.978 1.978 0 0 1 0-2.789zm16.04 9.83H30.13a8.474 8.474 0 0 0-3.366-5.417l.037-.037a4.222 4.222 0 0 0 0-5.964 4.194 4.194 0 0 0-2.984-1.235c-.705 0-1.384.172-1.988.495a4.204 4.204 0 0 0-1.988-.495 4.19 4.19 0 0 0-2.983 1.235 4.222 4.222 0 0 0 0 5.964l.037.038a8.484 8.484 0 0 0-3.367 5.416H8.88L21.985 5.11a1.405 1.405 0 0 0-.49-1.927L17.87 1.03a4.216 4.216 0 0 0-2.153-.593A4.242 4.242 0 0 0 12.088 2.5L.594 21.837a4.187 4.187 0 0 0-.462 3.195 4.198 4.198 0 0 0 1.932 2.587l2.894 1.72v3.443A4.223 4.223 0 0 0 9.176 37h22.496a4.223 4.223 0 0 0 4.218-4.218v-4.218c0-.776-.63-1.406-1.406-1.406z" mask="url(#b)"/>
        </g>
        <path fill="#FC0" d="M17.177 42.319a1.975 1.975 0 0 1-1.973-1.973v-3.38h26.44v3.38a1.975 1.975 0 0 1-1.972 1.973H17.177zM14.116 34.978l-2.904-1.726a1.961 1.961 0 0 1-.905-1.21 1.959 1.959 0 0 1 .216-1.495L22.017 11.21c.536-.903 1.775-1.232 2.701-.69l2.907 1.728-13.509 22.73z"/>
    </g>
</svg>
