<svg xmlns="http://www.w3.org/2000/svg" xmlns:xlink="http://www.w3.org/1999/xlink" width="52" height="52" viewBox="0 0 52 52">
    <defs>
        <path id="a" d="M0 45.327h45.657V0H0z"/>
    </defs>
    <g fill="none" fill-rule="evenodd" transform="translate(3 3)">
        <path fill="#FC0" d="M21.96 36.386c0 .996-.808 1.804-1.804 1.804H3.416a1.805 1.805 0 0 1-1.803-1.804V2.706c0-.997.808-1.804 1.804-1.804h16.74c.995 0 1.803.807 1.803 1.804v33.68z"/>
        <path stroke="#000" stroke-width="1.804" d="M21.96 36.386c0 .996-.808 1.804-1.804 1.804H3.416a1.805 1.805 0 0 1-1.803-1.804V2.706c0-.997.808-1.804 1.804-1.804h16.74c.995 0 1.803.807 1.803 1.804v33.68z"/>
        <mask id="b" fill="#fff">
            <use xlink:href="#a"/>
        </mask>
        <path fill="#FFF" d="M1.613 34.582H21.96V4.51H1.613z" mask="url(#b)"/>
        <path stroke="#000" stroke-width="1.804" d="M1.613 34.582H21.96V4.51H1.613z" mask="url(#b)"/>
        <path fill="#000" d="M.636 7.67A.636.636 0 0 1 0 7.032v-.635a.636.636 0 0 1 1.272 0v.635c0 .351-.285.636-.636.636M.636 10.213A.636.636 0 0 1 0 9.577V8.94a.636.636 0 0 1 1.272 0v.636c0 .35-.285.636-.636.636M.636 12.756A.636.636 0 0 1 0 12.12v-.636a.636.636 0 0 1 1.272 0v.636c0 .351-.285.636-.636.636" mask="url(#b)"/>
        <path fill="#FC0" d="M44.63 37.683l-1.482-6.593-.741-3.927c-.89-4.334-2.926-6.446-6.187-6.446H19.921c-3.26 0-5.297 2.112-6.185 6.483l-.742 3.89-1.482 6.668c-.518 2.963.593 5.408 2.89 6.297.63.26 1.26.37 1.889.37 1.89 0 3.593-1.11 4.63-3.074l2.815-5.445h8.632l2.556 4.89.296.555c1.334 2.63 3.964 3.704 6.52 2.704 2.297-.889 3.408-3.334 2.89-6.372" mask="url(#b)"/>
        <path stroke="#000" stroke-linecap="round" stroke-linejoin="round" stroke-width="1.804" d="M44.63 37.683l-1.482-6.593-.741-3.927c-.89-4.334-2.926-6.446-6.187-6.446H19.921c-3.26 0-5.297 2.112-6.185 6.483l-.742 3.89-1.482 6.668c-.518 2.963.593 5.408 2.89 6.297.63.26 1.26.37 1.889.37 1.89 0 3.593-1.11 4.63-3.074l2.815-5.445h8.632l2.556 4.89.296.555c1.334 2.63 3.964 3.704 6.52 2.704 2.297-.889 3.408-3.334 2.89-6.372z" mask="url(#b)"/>
        <path fill="#000" d="M23.7 28.311c0 .445-.334.778-.74.778h-1.446v1.556c0 .445-.333.778-.741.778-.407 0-.74-.333-.74-.778v-1.556h-1.445c-.408 0-.741-.333-.741-.778 0-.444.333-.777.741-.777h1.444v-1.556c0-.445.334-.778.741-.778.408 0 .741.333.741.778v1.556h1.445c.407 0 .74.37.74.777" mask="url(#b)"/>
        <path stroke="#000" stroke-width=".902" d="M23.7 28.311c0 .445-.334.778-.74.778h-1.446v1.556c0 .445-.333.778-.741.778-.407 0-.74-.333-.74-.778v-1.556h-1.445c-.408 0-.741-.333-.741-.778 0-.444.333-.777.741-.777h1.444v-1.556c0-.445.334-.778.741-.778.408 0 .741.333.741.778v1.556h1.445c.407 0 .74.37.74.777z" mask="url(#b)"/>
        <path fill="#000" d="M36.466 25.973a1.098 1.098 0 1 1-2.195 0 1.098 1.098 0 0 1 2.195 0M36.466 30.66a1.098 1.098 0 1 1-2.195 0 1.098 1.098 0 0 1 2.195 0M33.026 27.219a1.098 1.098 0 1 1 0 2.195 1.098 1.098 0 0 1 0-2.195M37.712 27.219a1.098 1.098 0 1 1 0 2.195 1.098 1.098 0 0 1 0-2.195" mask="url(#b)"/>
        <path stroke="#000" stroke-linecap="round" stroke-linejoin="round" stroke-width="1.804" d="M24.596 32.877h6.426M28.07 20.717v-3.406s-.582-5.052 5.054-5.052c5.635 0 9.13-2.28 9.13-10.209" mask="url(#b)"/>
        <g mask="url(#b)">
            <path fill="#FFF" d="M18.765 7.67l-9.02 10.842"/>
            <path stroke="#000" stroke-linecap="round" stroke-linejoin="round" stroke-width="1.804" d="M18.765 7.67l-9.02 10.842"/>
        </g>
        <g mask="url(#b)">
            <path fill="#FFF" d="M14.306 7.67l-4.51 5.421"/>
            <path stroke="#000" stroke-linecap="round" stroke-linejoin="round" stroke-width="1.804" d="M14.306 7.67l-4.51 5.421"/>
        </g>
        <path fill="#000" d="M8.844 21.124a.902.902 0 1 1-1.805 0 .902.902 0 0 1 1.805 0" mask="url(#b)"/>
    </g>
</svg>
