<svg xmlns="http://www.w3.org/2000/svg" width="95" height="79" viewBox="0 0 95 79">
    <g fill="none" fill-rule="evenodd">
        <g transform="translate(37.125)">
            <path fill="#B9CCCC" d="M19.8 64.375c10.253 0 18.562-2.08 18.562-4.64 0-3.095-.006-4.666-.006-4.666H1.237v4.665c0 2.562 8.31 4.64 18.563 4.64z"/>
            <path fill="#4B7079" d="M19.8 65.588c11.076 0 19.8-2.185 19.8-5.879v-3.496c-.006-.34-.006-.63-.006-.878v-.297l-.006-1.231H0V59.709c0 3.694 8.724 5.879 19.8 5.879zm0-2.475c-4.894 0-9.473-.483-12.827-1.325-1.584-.396-2.834-.853-3.644-1.336-.625-.371-.854-.65-.854-.743V55.044l-1.238 1.238h37.12l-1.238-1.232v.291c0 .248 0 .538.006.879v3.49c0 .092-.229.37-.854.742-.81.483-2.06.94-3.644 1.336-3.354.842-7.933 1.325-12.827 1.325z"/>
            <ellipse cx="19.8" cy="53.522" fill="#E5ECEC" rx="18.563" ry="4.641"/>
            <path fill="#4B7079" d="M19.8 59.4c11.076 0 19.8-2.184 19.8-5.878s-8.724-5.878-19.8-5.878S0 49.828 0 53.522 8.724 59.4 19.8 59.4zm0-2.475c-4.894 0-9.473-.483-12.827-1.324-1.584-.396-2.834-.854-3.644-1.337-.625-.37-.854-.65-.854-.742 0-.093.229-.371.854-.743.81-.482 2.06-.94 3.644-1.336 3.354-.842 7.933-1.324 12.827-1.324s9.473.482 12.827 1.324c1.584.396 2.834.854 3.644 1.336.625.372.854.65.854.743 0 .093-.229.371-.854.742-.81.483-2.06.94-3.644 1.337-3.354.841-7.933 1.324-12.827 1.324z"/>
            <path fill="#B9CCCC" d="M19.8 58.806c10.253 0 18.562-2.079 18.562-4.64 0-3.094-.006-4.666-.006-4.666H1.237v4.665c0 2.562 8.31 4.641 18.563 4.641z"/>
            <path fill="#4B7079" d="M19.8 60.019c11.076 0 19.8-2.184 19.8-5.878v-3.496c-.006-.34-.006-.631-.006-.879v-.297l-.006-1.231H0V54.14c0 3.694 8.724 5.878 19.8 5.878zm0-2.475c-4.894 0-9.473-.483-12.827-1.324-1.584-.396-2.834-.854-3.644-1.337-.625-.371-.854-.65-.854-.742v-4.666l-1.238 1.238h37.12l-1.238-1.232v.291c0 .248 0 .539.006.879v3.49c0 .092-.229.37-.854.742-.81.483-2.06.94-3.644 1.337-3.354.841-7.933 1.324-12.827 1.324z"/>
            <ellipse cx="19.8" cy="47.953" fill="#E5ECEC" rx="18.563" ry="4.641"/>
            <path fill="#4B7079" d="M19.8 53.831c11.076 0 19.8-2.184 19.8-5.878s-8.724-5.878-19.8-5.878S0 44.259 0 47.953s8.724 5.878 19.8 5.878zm0-2.475c-4.894 0-9.473-.482-12.827-1.324-1.584-.396-2.834-.854-3.644-1.336-.625-.372-.854-.65-.854-.743 0-.093.229-.371.854-.742.81-.483 2.06-.94 3.644-1.337 3.354-.841 7.933-1.324 12.827-1.324s9.473.483 12.827 1.324c1.584.396 2.834.854 3.644 1.337.625.37.854.65.854.742 0 .093-.229.371-.854.743-.81.482-2.06.94-3.644 1.336-3.354.842-7.933 1.324-12.827 1.324z"/>
            <path fill="#B9CCCC" d="M19.8 52.618c10.253 0 18.562-2.079 18.562-4.64 0-3.094-.006-4.666-.006-4.666H1.237v4.666c0 2.561 8.31 4.64 18.563 4.64z"/>
            <path fill="#4B7079" d="M19.8 53.831c11.076 0 19.8-2.184 19.8-5.878v-3.496c-.006-.34-.006-.63-.006-.878v-.297l-.006-1.232H0v5.903c0 3.694 8.724 5.878 19.8 5.878zm0-2.475c-4.894 0-9.473-.482-12.827-1.324-1.584-.396-2.834-.854-3.644-1.336-.625-.372-.854-.65-.854-.743v-4.666l-1.238 1.238h37.12l-1.238-1.231v.29c0 .248 0 .54.006.88v3.49c0 .092-.229.37-.854.742-.81.482-2.06.94-3.644 1.336-3.354.842-7.933 1.324-12.827 1.324z"/>
            <ellipse cx="19.8" cy="41.766" fill="#E5ECEC" rx="18.563" ry="4.641"/>
            <path fill="#4B7079" d="M19.8 47.644c11.076 0 19.8-2.184 19.8-5.878s-8.724-5.878-19.8-5.878S0 38.072 0 41.766s8.724 5.878 19.8 5.878zm0-2.475c-4.894 0-9.473-.483-12.827-1.324-1.584-.396-2.834-.854-3.644-1.337-.625-.371-.854-.65-.854-.742 0-.093.229-.372.854-.743.81-.483 2.06-.94 3.644-1.336 3.354-.842 7.933-1.325 12.827-1.325s9.473.483 12.827 1.325c1.584.396 2.834.854 3.644 1.336.625.371.854.65.854.743 0 .092-.229.37-.854.742-.81.483-2.06.94-3.644 1.337-3.354.841-7.933 1.324-12.827 1.324z"/>
            <path fill="#B9CCCC" d="M19.8 46.431c10.253 0 18.562-2.079 18.562-4.64 0-3.094-.006-4.666-.006-4.666H1.237v4.665c0 2.562 8.31 4.641 18.563 4.641z"/>
            <path fill="#4B7079" d="M19.8 47.644c11.076 0 19.8-2.184 19.8-5.878V38.27c-.006-.34-.006-.631-.006-.879v-.297l-.006-1.231H0V41.766c0 3.694 8.724 5.878 19.8 5.878zm0-2.475c-4.894 0-9.473-.483-12.827-1.324-1.584-.396-2.834-.854-3.644-1.337-.625-.371-.854-.65-.854-.742V37.1l-1.238 1.238h37.12l-1.238-1.232v.291c0 .248 0 .539.006.879v3.49c0 .092-.229.37-.854.742-.81.483-2.06.94-3.644 1.337-3.354.841-7.933 1.324-12.827 1.324z"/>
            <ellipse cx="19.8" cy="35.578" fill="#E5ECEC" rx="18.563" ry="4.641"/>
            <path fill="#4B7079" d="M19.8 41.456c11.076 0 19.8-2.184 19.8-5.878S30.876 29.7 19.8 29.7 0 31.884 0 35.578s8.724 5.878 19.8 5.878zm0-2.475c-4.894 0-9.473-.482-12.827-1.324-1.584-.396-2.834-.854-3.644-1.336-.625-.372-.854-.65-.854-.743 0-.093.229-.371.854-.742.81-.483 2.06-.94 3.644-1.337 3.354-.841 7.933-1.324 12.827-1.324s9.473.483 12.827 1.324c1.584.396 2.834.854 3.644 1.337.625.37.854.65.854.742 0 .093-.229.371-.854.743-.81.482-2.06.94-3.644 1.336-3.354.842-7.933 1.324-12.827 1.324z"/>
            <path fill="#B9CCCC" d="M19.8 40.862c10.253 0 18.562-2.079 18.562-4.64 0-3.094-.006-4.666-.006-4.666H1.237v4.666c0 2.561 8.31 4.64 18.563 4.64z"/>
            <path fill="#4B7079" d="M19.8 42.075c11.076 0 19.8-2.184 19.8-5.878V32.7c-.006-.34-.006-.631-.006-.879v-.297l-.006-1.231H0v5.903c0 3.694 8.724 5.878 19.8 5.878zm0-2.475c-4.894 0-9.473-.483-12.827-1.324-1.584-.396-2.834-.854-3.644-1.337-.625-.37-.854-.65-.854-.742V31.53L1.237 32.77h37.12l-1.238-1.231v.29c0 .248 0 .539.006.88v3.489c0 .093-.229.371-.854.742-.81.483-2.06.94-3.644 1.337-3.354.841-7.933 1.324-12.827 1.324z"/>
            <ellipse cx="19.8" cy="30.009" fill="#E5ECEC" rx="18.563" ry="4.641"/>
            <path fill="#4B7079" d="M19.8 35.888c11.076 0 19.8-2.185 19.8-5.879 0-3.694-8.724-5.878-19.8-5.878S0 26.315 0 30.01s8.724 5.879 19.8 5.879zm0-2.475c-4.894 0-9.473-.483-12.827-1.325-1.584-.396-2.834-.854-3.644-1.336-.625-.371-.854-.65-.854-.743 0-.092.229-.37.854-.742.81-.483 2.06-.94 3.644-1.337 3.354-.841 7.933-1.324 12.827-1.324s9.473.483 12.827 1.324c1.584.396 2.834.854 3.644 1.337.625.371.854.65.854.742 0 .093-.229.372-.854.743-.81.483-2.06.94-3.644 1.336-3.354.842-7.933 1.325-12.827 1.325z"/>
            <path fill="#B9CCCC" d="M19.8 34.675c10.253 0 18.562-2.08 18.562-4.64 0-3.095-.006-4.666-.006-4.666H1.237v4.665c0 2.562 8.31 4.64 18.563 4.64z"/>
            <path fill="#4B7079" d="M19.8 35.888c11.076 0 19.8-2.185 19.8-5.879v-3.496c-.006-.34-.006-.63-.006-.878v-.297l-.006-1.232H0v5.903c0 3.694 8.724 5.879 19.8 5.879zm0-2.475c-4.894 0-9.473-.483-12.827-1.325-1.584-.396-2.834-.854-3.644-1.336-.625-.371-.854-.65-.854-.743V25.344l-1.238 1.237h37.12l-1.238-1.23v.29c0 .248 0 .538.006.879v3.49c0 .092-.229.37-.854.742-.81.483-2.06.94-3.644 1.336-3.354.842-7.933 1.325-12.827 1.325z"/>
            <ellipse cx="19.8" cy="23.822" fill="#E5ECEC" rx="18.563" ry="4.641"/>
            <path fill="#4B7079" d="M19.8 29.7c11.076 0 19.8-2.184 19.8-5.878s-8.724-5.878-19.8-5.878S0 20.128 0 23.822 8.724 29.7 19.8 29.7zm0-2.475c-4.894 0-9.473-.483-12.827-1.324-1.584-.396-2.834-.854-3.644-1.337-.625-.37-.854-.65-.854-.742 0-.093.229-.371.854-.743.81-.482 2.06-.94 3.644-1.336 3.354-.842 7.933-1.324 12.827-1.324s9.473.482 12.827 1.324c1.584.396 2.834.854 3.644 1.336.625.372.854.65.854.743 0 .093-.229.371-.854.742-.81.483-2.06.94-3.644 1.337-3.354.841-7.933 1.324-12.827 1.324z"/>
            <path fill="#B9CCCC" d="M19.8 28.487c10.253 0 18.562-2.079 18.562-4.64 0-3.094-.006-4.666-.006-4.666H1.237v4.666c0 2.561 8.31 4.64 18.563 4.64z"/>
            <path fill="#4B7079" d="M19.8 29.7c11.076 0 19.8-2.184 19.8-5.878v-3.496c-.006-.34-.006-.631-.006-.879v-.297l-.006-1.231H0v5.903C0 27.516 8.724 29.7 19.8 29.7zm0-2.475c-4.894 0-9.473-.483-12.827-1.324-1.584-.396-2.834-.854-3.644-1.337-.625-.37-.854-.65-.854-.742v-4.666l-1.238 1.238h37.12l-1.238-1.231v.29c0 .248 0 .539.006.88v3.489c0 .093-.229.371-.854.742-.81.483-2.06.94-3.644 1.337-3.354.841-7.933 1.324-12.827 1.324z"/>
            <ellipse cx="19.8" cy="17.634" fill="#E5ECEC" rx="18.563" ry="4.641"/>
            <path fill="#4B7079" d="M19.8 23.512c11.076 0 19.8-2.184 19.8-5.878s-8.724-5.878-19.8-5.878S0 13.94 0 17.634s8.724 5.878 19.8 5.878zm0-2.474c-4.894 0-9.473-.483-12.827-1.325-1.584-.396-2.834-.854-3.644-1.336-.625-.371-.854-.65-.854-.743 0-.092.229-.37.854-.742.81-.483 2.06-.94 3.644-1.337 3.354-.841 7.933-1.324 12.827-1.324s9.473.483 12.827 1.324c1.584.396 2.834.854 3.644 1.337.625.371.854.65.854.742 0 .093-.229.372-.854.743-.81.483-2.06.94-3.644 1.336-3.354.842-7.933 1.325-12.827 1.325z"/>
            <path fill="#B9CCCC" d="M19.8 22.919c10.253 0 18.562-2.08 18.562-4.641 0-3.094-.006-4.665-.006-4.665H1.237v4.665c0 2.562 8.31 4.64 18.563 4.64z"/>
            <path fill="#4B7079" d="M19.8 24.131c11.076 0 19.8-2.184 19.8-5.878v-3.496c-.006-.34-.006-.63-.006-.878v-.297l-.006-1.232H0v5.903c0 3.694 8.724 5.878 19.8 5.878zm0-2.475c-4.894 0-9.473-.482-12.827-1.324-1.584-.396-2.834-.854-3.644-1.336-.625-.372-.854-.65-.854-.743v-4.666l-1.238 1.238h37.12l-1.238-1.231v.29c0 .248 0 .54.006.88v3.49c0 .092-.229.37-.854.742-.81.482-2.06.94-3.644 1.336-3.354.842-7.933 1.324-12.827 1.324z"/>
            <ellipse cx="19.8" cy="12.066" fill="#E5ECEC" rx="18.563" ry="4.641"/>
            <path fill="#4B7079" d="M19.8 17.944c11.076 0 19.8-2.184 19.8-5.878s-8.724-5.879-19.8-5.879S0 8.373 0 12.066c0 3.694 8.724 5.878 19.8 5.878zm0-2.475c-4.894 0-9.473-.483-12.827-1.324-1.584-.396-2.834-.854-3.644-1.337-.625-.371-.854-.65-.854-.742 0-.093.229-.372.854-.743.81-.482 2.06-.94 3.644-1.336 3.354-.842 7.933-1.325 12.827-1.325s9.473.483 12.827 1.325c1.584.396 2.834.854 3.644 1.336.625.371.854.65.854.743 0 .092-.229.37-.854.742-.81.483-2.06.94-3.644 1.337-3.354.841-7.933 1.324-12.827 1.324z"/>
            <path fill="#B9CCCC" d="M19.8 16.731c10.253 0 18.562-2.079 18.562-4.64 0-3.094-.006-4.666-.006-4.666H1.237v4.665c0 2.562 8.31 4.641 18.563 4.641z"/>
            <path fill="#4B7079" d="M19.8 17.944c11.076 0 19.8-2.184 19.8-5.878V8.57c-.006-.34-.006-.631-.006-.879v-.297l-.006-1.231H0V12.066c0 3.694 8.724 5.878 19.8 5.878zm0-2.475c-4.894 0-9.473-.483-12.827-1.324-1.584-.396-2.834-.854-3.644-1.337-.625-.371-.854-.65-.854-.742V7.4L1.237 8.638h37.12l-1.238-1.232v.291c0 .248 0 .539.006.879v3.49c0 .092-.229.37-.854.742-.81.483-2.06.94-3.644 1.337-3.354.841-7.933 1.324-12.827 1.324z"/>
            <ellipse cx="19.8" cy="5.878" fill="#E5ECEC" rx="18.563" ry="4.641"/>
            <path fill="#4B7079" d="M19.8 11.756c11.076 0 19.8-2.184 19.8-5.878S30.876 0 19.8 0 0 2.184 0 5.878s8.724 5.878 19.8 5.878zm0-2.475c-4.894 0-9.473-.482-12.827-1.324C5.39 7.561 4.14 7.103 3.33 6.621c-.625-.372-.854-.65-.854-.743 0-.093.229-.371.854-.742.81-.483 2.06-.94 3.644-1.337 3.354-.841 7.933-1.324 12.827-1.324s9.473.483 12.827 1.324c1.584.396 2.834.854 3.644 1.337.625.37.854.65.854.742 0 .093-.229.371-.854.743-.81.482-2.06.94-3.644 1.336-3.354.842-7.933 1.324-12.827 1.324z"/>
        </g>
        <g transform="translate(0 11.756)">
            <path fill="#B9CCCC" d="M19.8 52.618c10.253 0 18.562-2.079 18.562-4.64 0-3.094-.006-4.666-.006-4.666H1.237v4.666c0 2.561 8.31 4.64 18.563 4.64z"/>
            <path fill="#4B7079" d="M19.8 53.831c11.076 0 19.8-2.184 19.8-5.878v-3.496c-.006-.34-.006-.63-.006-.878v-.297l-.006-1.232H0v5.903c0 3.694 8.724 5.878 19.8 5.878zm0-2.475c-4.894 0-9.473-.482-12.827-1.324-1.584-.396-2.834-.854-3.644-1.336-.625-.372-.854-.65-.854-.743v-4.666l-1.238 1.238h37.12l-1.238-1.231v.29c0 .248 0 .54.006.88v3.49c0 .092-.229.37-.854.742-.81.482-2.06.94-3.644 1.336-3.354.842-7.933 1.324-12.827 1.324z"/>
            <ellipse cx="19.8" cy="41.766" fill="#E5ECEC" rx="18.563" ry="4.641"/>
            <path fill="#4B7079" d="M19.8 47.644c11.076 0 19.8-2.184 19.8-5.878s-8.724-5.878-19.8-5.878S0 38.072 0 41.766s8.724 5.878 19.8 5.878zm0-2.475c-4.894 0-9.473-.483-12.827-1.324-1.584-.396-2.834-.854-3.644-1.337-.625-.371-.854-.65-.854-.742 0-.093.229-.372.854-.743.81-.483 2.06-.94 3.644-1.336 3.354-.842 7.933-1.325 12.827-1.325s9.473.483 12.827 1.325c1.584.396 2.834.854 3.644 1.336.625.371.854.65.854.743 0 .092-.229.37-.854.742-.81.483-2.06.94-3.644 1.337-3.354.841-7.933 1.324-12.827 1.324z"/>
            <path fill="#B9CCCC" d="M19.8 47.05c10.253 0 18.562-2.08 18.562-4.64 0-3.095-.006-4.666-.006-4.666H1.237v4.665c0 2.562 8.31 4.64 18.563 4.64z"/>
            <path fill="#4B7079" d="M19.8 48.263c11.076 0 19.8-2.185 19.8-5.879v-3.496c-.006-.34-.006-.63-.006-.878v-.297l-.006-1.232H0v5.903c0 3.694 8.724 5.879 19.8 5.879zm0-2.475c-4.894 0-9.473-.483-12.827-1.325-1.584-.396-2.834-.854-3.644-1.336-.625-.371-.854-.65-.854-.743V37.72l-1.238 1.237h37.12l-1.238-1.23v.29c0 .248 0 .538.006.879v3.49c0 .092-.229.37-.854.742-.81.482-2.06.94-3.644 1.336-3.354.842-7.933 1.325-12.827 1.325z"/>
            <ellipse cx="19.8" cy="36.197" fill="#E5ECEC" rx="18.563" ry="4.641"/>
            <path fill="#4B7079" d="M19.8 42.075c11.076 0 19.8-2.184 19.8-5.878s-8.724-5.878-19.8-5.878S0 32.503 0 36.197s8.724 5.878 19.8 5.878zm0-2.475c-4.894 0-9.473-.483-12.827-1.324-1.584-.396-2.834-.854-3.644-1.337-.625-.37-.854-.65-.854-.742 0-.093.229-.371.854-.743.81-.482 2.06-.94 3.644-1.336 3.354-.842 7.933-1.324 12.827-1.324s9.473.482 12.827 1.324c1.584.396 2.834.854 3.644 1.336.625.372.854.65.854.743 0 .093-.229.371-.854.742-.81.483-2.06.94-3.644 1.337-3.354.841-7.933 1.324-12.827 1.324z"/>
            <path fill="#B9CCCC" d="M19.8 40.862c10.253 0 18.562-2.079 18.562-4.64 0-3.094-.006-4.666-.006-4.666H1.237v4.666c0 2.561 8.31 4.64 18.563 4.64z"/>
            <path fill="#4B7079" d="M19.8 42.075c11.076 0 19.8-2.184 19.8-5.878V32.7c-.006-.34-.006-.631-.006-.879v-.297l-.006-1.231H0v5.903c0 3.694 8.724 5.878 19.8 5.878zm0-2.475c-4.894 0-9.473-.483-12.827-1.324-1.584-.396-2.834-.854-3.644-1.337-.625-.37-.854-.65-.854-.742V31.53L1.237 32.77h37.12l-1.238-1.231v.29c0 .248 0 .539.006.88v3.489c0 .093-.229.371-.854.742-.81.483-2.06.94-3.644 1.337-3.354.841-7.933 1.324-12.827 1.324z"/>
            <ellipse cx="19.8" cy="30.009" fill="#E5ECEC" rx="18.563" ry="4.641"/>
            <path fill="#4B7079" d="M19.8 35.888c11.076 0 19.8-2.185 19.8-5.879 0-3.694-8.724-5.878-19.8-5.878S0 26.315 0 30.01s8.724 5.879 19.8 5.879zm0-2.475c-4.894 0-9.473-.483-12.827-1.325-1.584-.396-2.834-.854-3.644-1.336-.625-.371-.854-.65-.854-.743 0-.092.229-.37.854-.742.81-.483 2.06-.94 3.644-1.337 3.354-.841 7.933-1.324 12.827-1.324s9.473.483 12.827 1.324c1.584.396 2.834.854 3.644 1.337.625.371.854.65.854.742 0 .093-.229.372-.854.743-.81.483-2.06.94-3.644 1.336-3.354.842-7.933 1.325-12.827 1.325z"/>
            <path fill="#B9CCCC" d="M19.8 34.675c10.253 0 18.562-2.08 18.562-4.64 0-3.095-.006-4.666-.006-4.666H1.237v4.665c0 2.562 8.31 4.64 18.563 4.64z"/>
            <path fill="#4B7079" d="M19.8 35.888c11.076 0 19.8-2.185 19.8-5.879v-3.496c-.006-.34-.006-.63-.006-.878v-.297l-.006-1.232H0v5.903c0 3.694 8.724 5.879 19.8 5.879zm0-2.475c-4.894 0-9.473-.483-12.827-1.325-1.584-.396-2.834-.854-3.644-1.336-.625-.371-.854-.65-.854-.743V25.344l-1.238 1.237h37.12l-1.238-1.23v.29c0 .248 0 .538.006.879v3.49c0 .092-.229.37-.854.742-.81.483-2.06.94-3.644 1.336-3.354.842-7.933 1.325-12.827 1.325z"/>
            <ellipse cx="19.8" cy="23.822" fill="#E5ECEC" rx="18.563" ry="4.641"/>
            <path fill="#4B7079" d="M19.8 29.7c11.076 0 19.8-2.184 19.8-5.878s-8.724-5.878-19.8-5.878S0 20.128 0 23.822 8.724 29.7 19.8 29.7zm0-2.475c-4.894 0-9.473-.483-12.827-1.324-1.584-.396-2.834-.854-3.644-1.337-.625-.37-.854-.65-.854-.742 0-.093.229-.371.854-.743.81-.482 2.06-.94 3.644-1.336 3.354-.842 7.933-1.324 12.827-1.324s9.473.482 12.827 1.324c1.584.396 2.834.854 3.644 1.336.625.372.854.65.854.743 0 .093-.229.371-.854.742-.81.483-2.06.94-3.644 1.337-3.354.841-7.933 1.324-12.827 1.324z"/>
            <path fill="#B9CCCC" d="M19.8 29.106c10.253 0 18.562-2.079 18.562-4.64 0-3.094-.006-4.666-.006-4.666H1.237v4.665c0 2.562 8.31 4.641 18.563 4.641z"/>
            <path fill="#4B7079" d="M19.8 30.319c11.076 0 19.8-2.184 19.8-5.878v-3.496c-.006-.34-.006-.631-.006-.879v-.297l-.006-1.231H0V24.44c0 3.694 8.724 5.878 19.8 5.878zm0-2.475c-4.894 0-9.473-.483-12.827-1.324-1.584-.396-2.834-.854-3.644-1.337-.625-.371-.854-.65-.854-.742v-4.666l-1.238 1.238h37.12l-1.238-1.232v.291c0 .248 0 .539.006.879v3.49c0 .092-.229.37-.854.742-.81.483-2.06.94-3.644 1.337-3.354.841-7.933 1.324-12.827 1.324z"/>
            <ellipse cx="19.8" cy="18.253" fill="#E5ECEC" rx="18.563" ry="4.641"/>
            <path fill="#4B7079" d="M19.8 24.131c11.076 0 19.8-2.184 19.8-5.878s-8.724-5.878-19.8-5.878S0 14.559 0 18.253s8.724 5.878 19.8 5.878zm0-2.475c-4.894 0-9.473-.482-12.827-1.324-1.584-.396-2.834-.854-3.644-1.336-.625-.372-.854-.65-.854-.743 0-.093.229-.371.854-.742.81-.483 2.06-.94 3.644-1.337 3.354-.841 7.933-1.324 12.827-1.324s9.473.483 12.827 1.324c1.584.396 2.834.854 3.644 1.337.625.37.854.65.854.742 0 .093-.229.371-.854.743-.81.482-2.06.94-3.644 1.336-3.354.842-7.933 1.324-12.827 1.324z"/>
            <path fill="#B9CCCC" d="M19.8 22.919c10.253 0 18.562-2.08 18.562-4.641 0-3.094-.006-4.665-.006-4.665H1.237v4.665c0 2.562 8.31 4.64 18.563 4.64z"/>
            <path fill="#4B7079" d="M19.8 24.131c11.076 0 19.8-2.184 19.8-5.878v-3.496c-.006-.34-.006-.63-.006-.878v-.297l-.006-1.232H0v5.903c0 3.694 8.724 5.878 19.8 5.878zm0-2.475c-4.894 0-9.473-.482-12.827-1.324-1.584-.396-2.834-.854-3.644-1.336-.625-.372-.854-.65-.854-.743v-4.666l-1.238 1.238h37.12l-1.238-1.231v.29c0 .248 0 .54.006.88v3.49c0 .092-.229.37-.854.742-.81.482-2.06.94-3.644 1.336-3.354.842-7.933 1.324-12.827 1.324z"/>
            <ellipse cx="19.8" cy="12.066" fill="#E5ECEC" rx="18.563" ry="4.641"/>
            <path fill="#4B7079" d="M19.8 17.944c11.076 0 19.8-2.184 19.8-5.878s-8.724-5.879-19.8-5.879S0 8.373 0 12.066c0 3.694 8.724 5.878 19.8 5.878zm0-2.475c-4.894 0-9.473-.483-12.827-1.324-1.584-.396-2.834-.854-3.644-1.337-.625-.371-.854-.65-.854-.742 0-.093.229-.372.854-.743.81-.482 2.06-.94 3.644-1.336 3.354-.842 7.933-1.325 12.827-1.325s9.473.483 12.827 1.325c1.584.396 2.834.854 3.644 1.336.625.371.854.65.854.743 0 .092-.229.37-.854.742-.81.483-2.06.94-3.644 1.337-3.354.841-7.933 1.324-12.827 1.324z"/>
            <path fill="#B9CCCC" d="M19.8 16.731c10.253 0 18.562-2.079 18.562-4.64 0-3.094-.006-4.666-.006-4.666H1.237v4.665c0 2.562 8.31 4.641 18.563 4.641z"/>
            <path fill="#4B7079" d="M19.8 17.944c11.076 0 19.8-2.184 19.8-5.878V8.57c-.006-.34-.006-.631-.006-.879v-.297l-.006-1.231H0V12.066c0 3.694 8.724 5.878 19.8 5.878zm0-2.475c-4.894 0-9.473-.483-12.827-1.324-1.584-.396-2.834-.854-3.644-1.337-.625-.371-.854-.65-.854-.742V7.4L1.237 8.638h37.12l-1.238-1.232v.291c0 .248 0 .539.006.879v3.49c0 .092-.229.37-.854.742-.81.483-2.06.94-3.644 1.337-3.354.841-7.933 1.324-12.827 1.324z"/>
            <ellipse cx="19.8" cy="5.878" fill="#E5ECEC" rx="18.563" ry="4.641"/>
            <path fill="#4B7079" d="M19.8 11.756c11.076 0 19.8-2.184 19.8-5.878S30.876 0 19.8 0 0 2.184 0 5.878s8.724 5.878 19.8 5.878zm0-2.475c-4.894 0-9.473-.482-12.827-1.324C5.39 7.561 4.14 7.103 3.33 6.621c-.625-.372-.854-.65-.854-.743 0-.093.229-.371.854-.742.81-.483 2.06-.94 3.644-1.337 3.354-.841 7.933-1.324 12.827-1.324s9.473.483 12.827 1.324c1.584.396 2.834.854 3.644 1.337.625.37.854.65.854.742 0 .093-.229.371-.854.743-.81.482-2.06.94-3.644 1.336-3.354.842-7.933 1.324-12.827 1.324z"/>
        </g>
        <g transform="translate(17.944 36.506)">
            <path fill="#FC0" d="M19.8 34.675c10.253 0 18.562-2.08 18.562-4.64 0-3.095-.006-4.666-.006-4.666H1.237v4.665c0 2.562 8.31 4.64 18.563 4.64z"/>
            <path fill="#4B7079" d="M19.8 35.888c11.076 0 19.8-2.185 19.8-5.879v-3.496c-.006-.34-.006-.63-.006-.878v-.297l-.006-1.232H0v5.903c0 3.694 8.724 5.879 19.8 5.879zm0-2.475c-4.894 0-9.473-.483-12.827-1.325-1.584-.396-2.834-.854-3.644-1.336-.625-.371-.854-.65-.854-.743V25.344l-1.238 1.237h37.12l-1.238-1.23v.29c0 .248 0 .538.006.879v3.49c0 .092-.229.37-.854.742-.81.483-2.06.94-3.644 1.336-3.354.842-7.933 1.325-12.827 1.325z"/>
            <ellipse cx="19.8" cy="23.822" fill="#FFDB4D" rx="18.563" ry="4.641"/>
            <path fill="#4B7079" d="M19.8 29.7c11.076 0 19.8-2.184 19.8-5.878s-8.724-5.878-19.8-5.878S0 20.128 0 23.822 8.724 29.7 19.8 29.7zm0-2.475c-4.894 0-9.473-.483-12.827-1.324-1.584-.396-2.834-.854-3.644-1.337-.625-.37-.854-.65-.854-.742 0-.093.229-.371.854-.743.81-.482 2.06-.94 3.644-1.336 3.354-.842 7.933-1.324 12.827-1.324s9.473.482 12.827 1.324c1.584.396 2.834.854 3.644 1.336.625.372.854.65.854.743 0 .093-.229.371-.854.742-.81.483-2.06.94-3.644 1.337-3.354.841-7.933 1.324-12.827 1.324z"/>
            <path fill="#FC0" d="M19.8 28.487c10.253 0 18.562-2.079 18.562-4.64 0-3.094-.006-4.666-.006-4.666H1.237v4.666c0 2.561 8.31 4.64 18.563 4.64z"/>
            <path fill="#4B7079" d="M19.8 29.7c11.076 0 19.8-2.184 19.8-5.878v-3.496c-.006-.34-.006-.631-.006-.879v-.297l-.006-1.231H0v5.903C0 27.516 8.724 29.7 19.8 29.7zm0-2.475c-4.894 0-9.473-.483-12.827-1.324-1.584-.396-2.834-.854-3.644-1.337-.625-.37-.854-.65-.854-.742v-4.666l-1.238 1.238h37.12l-1.238-1.231v.29c0 .248 0 .539.006.88v3.489c0 .093-.229.371-.854.742-.81.483-2.06.94-3.644 1.337-3.354.841-7.933 1.324-12.827 1.324z"/>
            <ellipse cx="19.8" cy="17.634" fill="#FFDB4D" rx="18.563" ry="4.641"/>
            <path fill="#4B7079" d="M19.8 23.512c11.076 0 19.8-2.184 19.8-5.878s-8.724-5.878-19.8-5.878S0 13.94 0 17.634s8.724 5.878 19.8 5.878zm0-2.474c-4.894 0-9.473-.483-12.827-1.325-1.584-.396-2.834-.854-3.644-1.336-.625-.371-.854-.65-.854-.743 0-.092.229-.37.854-.742.81-.483 2.06-.94 3.644-1.337 3.354-.841 7.933-1.324 12.827-1.324s9.473.483 12.827 1.324c1.584.396 2.834.854 3.644 1.337.625.371.854.65.854.742 0 .093-.229.372-.854.743-.81.483-2.06.94-3.644 1.336-3.354.842-7.933 1.325-12.827 1.325z"/>
            <path fill="#FC0" d="M19.8 22.3c10.253 0 18.562-2.08 18.562-4.64 0-3.095-.006-4.666-.006-4.666H1.237v4.665c0 2.562 8.31 4.64 18.563 4.64z"/>
            <path fill="#4B7079" d="M19.8 23.512c11.076 0 19.8-2.184 19.8-5.878v-3.496c-.006-.34-.006-.63-.006-.878v-.297l-.006-1.231H0V17.633c0 3.694 8.724 5.878 19.8 5.878zm0-2.474c-4.894 0-9.473-.483-12.827-1.325-1.584-.396-2.834-.854-3.644-1.336-.625-.371-.854-.65-.854-.743V12.97l-1.238 1.238h37.12l-1.238-1.232v.291c0 .248 0 .538.006.879v3.49c0 .092-.229.37-.854.742-.81.483-2.06.94-3.644 1.336-3.354.842-7.933 1.325-12.827 1.325z"/>
            <ellipse cx="19.8" cy="11.447" fill="#FFDB4D" rx="18.563" ry="4.641"/>
            <path fill="#4B7079" d="M19.8 17.325c11.076 0 19.8-2.184 19.8-5.878s-8.724-5.878-19.8-5.878S0 7.753 0 11.447s8.724 5.878 19.8 5.878zm0-2.475c-4.894 0-9.473-.483-12.827-1.324-1.584-.396-2.834-.854-3.644-1.337-.625-.37-.854-.65-.854-.742 0-.093.229-.371.854-.743.81-.482 2.06-.94 3.644-1.336 3.354-.842 7.933-1.324 12.827-1.324s9.473.482 12.827 1.324c1.584.396 2.834.854 3.644 1.336.625.372.854.65.854.743 0 .093-.229.371-.854.742-.81.483-2.06.94-3.644 1.337-3.354.841-7.933 1.324-12.827 1.324z"/>
            <path fill="#FC0" d="M19.8 16.731c10.253 0 18.562-2.079 18.562-4.64 0-3.094-.006-4.666-.006-4.666H1.237v4.665c0 2.562 8.31 4.641 18.563 4.641z"/>
            <path fill="#4B7079" d="M19.8 17.944c11.076 0 19.8-2.184 19.8-5.878V8.57c-.006-.34-.006-.631-.006-.879v-.297l-.006-1.231H0V12.066c0 3.694 8.724 5.878 19.8 5.878zm0-2.475c-4.894 0-9.473-.483-12.827-1.324-1.584-.396-2.834-.854-3.644-1.337-.625-.371-.854-.65-.854-.742V7.4L1.237 8.638h37.12l-1.238-1.232v.291c0 .248 0 .539.006.879v3.49c0 .092-.229.37-.854.742-.81.483-2.06.94-3.644 1.337-3.354.841-7.933 1.324-12.827 1.324z"/>
            <ellipse cx="19.8" cy="5.878" fill="#FFDB4D" rx="18.563" ry="4.641"/>
            <path fill="#4B7079" d="M19.8 11.756c11.076 0 19.8-2.184 19.8-5.878S30.876 0 19.8 0 0 2.184 0 5.878s8.724 5.878 19.8 5.878zm0-2.475c-4.894 0-9.473-.482-12.827-1.324C5.39 7.561 4.14 7.103 3.33 6.621c-.625-.372-.854-.65-.854-.743 0-.093.229-.371.854-.742.81-.483 2.06-.94 3.644-1.337 3.354-.841 7.933-1.324 12.827-1.324s9.473.483 12.827 1.324c1.584.396 2.834.854 3.644 1.337.625.37.854.65.854.742 0 .093-.229.371-.854.743-.81.482-2.06.94-3.644 1.336-3.354.842-7.933 1.324-12.827 1.324z"/>
        </g>
        <g transform="translate(55.069 42.694)">
            <path fill="#B9CCCC" d="M19.8 22.919c10.253 0 18.562-2.08 18.562-4.641 0-3.094-.006-4.665-.006-4.665H1.237v4.665c0 2.562 8.31 4.64 18.563 4.64z"/>
            <path fill="#4B7079" d="M19.8 24.131c11.076 0 19.8-2.184 19.8-5.878v-3.496c-.006-.34-.006-.63-.006-.878v-.297l-.006-1.232H0v5.903c0 3.694 8.724 5.878 19.8 5.878zm0-2.475c-4.894 0-9.473-.482-12.827-1.324-1.584-.396-2.834-.854-3.644-1.336-.625-.372-.854-.65-.854-.743v-4.666l-1.238 1.238h37.12l-1.238-1.231v.29c0 .248 0 .54.006.88v3.49c0 .092-.229.37-.854.742-.81.482-2.06.94-3.644 1.336-3.354.842-7.933 1.324-12.827 1.324z"/>
            <ellipse cx="19.8" cy="12.066" fill="#E5ECEC" rx="18.563" ry="4.641"/>
            <path fill="#4B7079" d="M19.8 17.944c11.076 0 19.8-2.184 19.8-5.878s-8.724-5.879-19.8-5.879S0 8.373 0 12.066c0 3.694 8.724 5.878 19.8 5.878zm0-2.475c-4.894 0-9.473-.483-12.827-1.324-1.584-.396-2.834-.854-3.644-1.337-.625-.371-.854-.65-.854-.742 0-.093.229-.372.854-.743.81-.482 2.06-.94 3.644-1.336 3.354-.842 7.933-1.325 12.827-1.325s9.473.483 12.827 1.325c1.584.396 2.834.854 3.644 1.336.625.371.854.65.854.743 0 .092-.229.37-.854.742-.81.483-2.06.94-3.644 1.337-3.354.841-7.933 1.324-12.827 1.324z"/>
            <path fill="#B9CCCC" d="M19.8 16.731c10.253 0 18.562-2.079 18.562-4.64 0-3.094-.006-4.666-.006-4.666H1.237v4.665c0 2.562 8.31 4.641 18.563 4.641z"/>
            <path fill="#4B7079" d="M19.8 17.944c11.076 0 19.8-2.184 19.8-5.878V8.57c-.006-.34-.006-.631-.006-.879v-.297l-.006-1.231H0V12.066c0 3.694 8.724 5.878 19.8 5.878zm0-2.475c-4.894 0-9.473-.483-12.827-1.324-1.584-.396-2.834-.854-3.644-1.337-.625-.371-.854-.65-.854-.742V7.4L1.237 8.638h37.12l-1.238-1.232v.291c0 .248 0 .539.006.879v3.49c0 .092-.229.37-.854.742-.81.483-2.06.94-3.644 1.337-3.354.841-7.933 1.324-12.827 1.324z"/>
            <ellipse cx="19.8" cy="5.878" fill="#E5ECEC" rx="18.563" ry="4.641"/>
            <path fill="#4B7079" d="M19.8 11.756c11.076 0 19.8-2.184 19.8-5.878S30.876 0 19.8 0 0 2.184 0 5.878s8.724 5.878 19.8 5.878zm0-2.475c-4.894 0-9.473-.482-12.827-1.324C5.39 7.561 4.14 7.103 3.33 6.621c-.625-.372-.854-.65-.854-.743 0-.093.229-.371.854-.742.81-.483 2.06-.94 3.644-1.337 3.354-.841 7.933-1.324 12.827-1.324s9.473.483 12.827 1.324c1.584.396 2.834.854 3.644 1.337.625.37.854.65.854.742 0 .093-.229.371-.854.743-.81.482-2.06.94-3.644 1.336-3.354.842-7.933 1.324-12.827 1.324z"/>
        </g>
        <g transform="translate(37.125 54.45)">
            <path fill="#B9CCCC" d="M19.8 22.919c10.253 0 18.562-2.08 18.562-4.641 0-3.094-.006-4.665-.006-4.665H1.237v4.665c0 2.562 8.31 4.64 18.563 4.64z"/>
            <path fill="#4B7079" d="M19.8 24.131c11.076 0 19.8-2.184 19.8-5.878v-3.496c-.006-.34-.006-.63-.006-.878v-.297l-.006-1.232H0v5.903c0 3.694 8.724 5.878 19.8 5.878zm0-2.475c-4.894 0-9.473-.482-12.827-1.324-1.584-.396-2.834-.854-3.644-1.336-.625-.372-.854-.65-.854-.743v-4.666l-1.238 1.238h37.12l-1.238-1.231v.29c0 .248 0 .54.006.88v3.49c0 .092-.229.37-.854.742-.81.482-2.06.94-3.644 1.336-3.354.842-7.933 1.324-12.827 1.324z"/>
            <ellipse cx="19.8" cy="12.066" fill="#E5ECEC" rx="18.563" ry="4.641"/>
            <path fill="#4B7079" d="M19.8 17.944c11.076 0 19.8-2.184 19.8-5.878s-8.724-5.879-19.8-5.879S0 8.373 0 12.066c0 3.694 8.724 5.878 19.8 5.878zm0-2.475c-4.894 0-9.473-.483-12.827-1.324-1.584-.396-2.834-.854-3.644-1.337-.625-.371-.854-.65-.854-.742 0-.093.229-.372.854-.743.81-.482 2.06-.94 3.644-1.336 3.354-.842 7.933-1.325 12.827-1.325s9.473.483 12.827 1.325c1.584.396 2.834.854 3.644 1.336.625.371.854.65.854.743 0 .092-.229.37-.854.742-.81.483-2.06.94-3.644 1.337-3.354.841-7.933 1.324-12.827 1.324z"/>
            <path fill="#B9CCCC" d="M19.8 16.731c10.253 0 18.562-2.079 18.562-4.64 0-3.094-.006-4.666-.006-4.666H1.237v4.665c0 2.562 8.31 4.641 18.563 4.641z"/>
            <path fill="#4B7079" d="M19.8 17.944c11.076 0 19.8-2.184 19.8-5.878V8.57c-.006-.34-.006-.631-.006-.879v-.297l-.006-1.231H0V12.066c0 3.694 8.724 5.878 19.8 5.878zm0-2.475c-4.894 0-9.473-.483-12.827-1.324-1.584-.396-2.834-.854-3.644-1.337-.625-.371-.854-.65-.854-.742V7.4L1.237 8.638h37.12l-1.238-1.232v.291c0 .248 0 .539.006.879v3.49c0 .092-.229.37-.854.742-.81.483-2.06.94-3.644 1.337-3.354.841-7.933 1.324-12.827 1.324z"/>
            <ellipse cx="19.8" cy="5.878" fill="#E5ECEC" rx="18.563" ry="4.641"/>
            <path fill="#4B7079" d="M19.8 11.756c11.076 0 19.8-2.184 19.8-5.878S30.876 0 19.8 0 0 2.184 0 5.878s8.724 5.878 19.8 5.878zm0-2.475c-4.894 0-9.473-.482-12.827-1.324C5.39 7.561 4.14 7.103 3.33 6.621c-.625-.372-.854-.65-.854-.743 0-.093.229-.371.854-.742.81-.483 2.06-.94 3.644-1.337 3.354-.841 7.933-1.324 12.827-1.324s9.473.483 12.827 1.324c1.584.396 2.834.854 3.644 1.337.625.37.854.65.854.742 0 .093-.229.371-.854.743-.81.482-2.06.94-3.644 1.336-3.354.842-7.933 1.324-12.827 1.324z"/>
        </g>
    </g>
</svg>
