<svg xmlns="http://www.w3.org/2000/svg" width="65" height="74" viewBox="0 0 65 74">
    <g fill="none" fill-rule="evenodd">
        <path fill="#FFF" d="M24 54h28l-6.588 18H30.588z"/>
        <path fill="#7BCC21" d="M43.514 27.496c-4.736 3.008-7.179 8.5 0 13.113 3.934 9.363 11.251 6.846 15.586 2.5 4.33-4.345 6.595-16.47 3.395-23.109-6.915 4.973-13.08 3.75-18.98 7.496z"/>
        <path fill="#63A51B" d="M29.938 13.59c4.813 5.651 7.352 13.08-4.115 18.073-5.246 11.687-13.232 7.365-18.544 1.119C1.97 26.536-.062 9.823 4.616 1c8.624 7.284 19.312 5.522 25.322 12.59z"/>
        <path fill="#324B51" d="M57.814 41.668c-2.11 2.157-4.627 3.442-6.736 3.442-2.338 0-4.257-1.529-5.717-4.525 2.338-2.634 5.163-5.084 8.486-6.693.688-.33.968-1.15.627-1.816-.347-.672-1.186-.943-1.88-.607-3.535 1.713-6.534 4.238-9.012 6.942-1.947-1.474-2.965-3.089-2.965-4.714.005-1.897 1.42-3.94 3.781-5.468 2.428-1.567 4.968-2.2 7.654-2.873 2.87-.72 6.07-1.523 9.41-3.587 1.952 6.351-.213 16.399-3.648 19.9zM17.35 38.113c-2.826 0-6.177-2.043-9.427-5.755-4.766-5.44-6.999-20.078-3.3-28.885C8.8 6.427 13.337 7.75 17.393 8.93c4.767 1.388 8.879 2.59 11.804 5.93 2.132 2.427 4.504 6.015 3.71 9.331-.538 2.255-2.49 4.238-5.802 5.913-3.53-5.441-8.19-11.202-14.265-16.508a1.437 1.437 0 0 0-1.98.103 1.325 1.325 0 0 0 .105 1.913c5.84 5.09 10.333 10.687 13.757 15.982-2.014 4.325-4.492 6.52-7.373 6.52zM44.23 71.29H29.462l-5.779-16.8H50.01l-5.78 16.8zm19.184-52.193a1.387 1.387 0 0 0-.929-.748 1.445 1.445 0 0 0-1.186.233c-3.446 2.52-6.752 3.35-9.947 4.146-2.791.704-5.684 1.425-8.503 3.246-3.189 2.06-5.018 4.872-5.03 7.717-.005 1.767.717 4.32 3.978 6.812-2.506 3.127-4.352 6.303-5.538 8.622-1.203-3.723-3.558-9.852-7.698-16.707 3.972-2.049 6.35-4.601 7.071-7.614.845-3.545-.599-7.48-4.296-11.7-3.463-3.951-8.163-5.317-13.136-6.77-4.47-1.3-9.09-2.65-13.197-6.015a1.42 1.42 0 0 0-1.17-.293c-.413.076-.771.331-.967.694-5.209 9.538-2.77 26.89 2.926 33.388 2.193 2.51 6.618 6.715 11.558 6.715 3.642 0 6.685-2.179 9.08-6.47C31 42.08 33.265 48.8 34.137 51.78H21.741c-.447 0-.873.206-1.135.558a1.32 1.32 0 0 0-.19 1.225l6.713 19.51c.19.552.721.926 1.325.926h16.784c.604 0 1.135-.374 1.325-.927l6.714-19.51a1.32 1.32 0 0 0-.19-1.224 1.417 1.417 0 0 0-1.136-.558H38.066c.962-2.022 2.763-5.441 5.387-8.877 2.36 4 5.365 4.915 7.625 4.915 2.904 0 6.098-1.56 8.766-4.286 4.46-4.553 6.988-17.217 3.57-24.436z"/>
    </g>
</svg>
