<svg xmlns="http://www.w3.org/2000/svg" xmlns:xlink="http://www.w3.org/1999/xlink" width="52" height="52" viewBox="0 0 52 52">
    <defs>
        <path id="a" d="M0 39.633h47.586V0H0z"/>
    </defs>
    <g fill="none" fill-rule="evenodd" transform="translate(2 6)">
        <path stroke="#000" stroke-linecap="round" stroke-linejoin="round" stroke-width="1.315" d="M40.91 24.63a2.16 2.16 0 0 1 .989-1.449 2.121 2.121 0 0 1 2.937.723c.364.607.4 1.324.159 1.935a3.128 3.128 0 0 1 1.477 1.28c.898 1.496.432 3.444-1.042 4.355a3.092 3.092 0 0 1-3.543-.204 2.155 2.155 0 0 1-.873 1.049 2.122 2.122 0 0 1-2.939-.724 2.19 2.19 0 0 1-.283-1.477 3.12 3.12 0 0 1-1.177-1.135c-.897-1.494-.431-3.443 1.043-4.353a3.084 3.084 0 0 1 3.252 0zM41.847 35.467v-7.928M42.153 29.643c.774 0 1.401-.635 1.401-1.42M10.268 24.382a2.622 2.622 0 0 0 1.278-1.706c.329-1.416-.537-2.835-1.935-3.168a2.57 2.57 0 0 0-2.266.546 3.778 3.778 0 0 0-2.018-1.247c-2.042-.487-4.087.797-4.568 2.868A3.88 3.88 0 0 0 2.33 25.75a2.623 2.623 0 0 0-.865 1.42c-.328 1.417.538 2.835 1.936 3.169.63.15 1.259.054 1.79-.227a3.77 3.77 0 0 0 1.74.95c2.042.487 4.087-.797 4.567-2.868a3.882 3.882 0 0 0-1.23-3.81zM6.695 35.467v-9.64M6.321 27.575c-.94 0-1.702-.772-1.702-1.726"/>
        <path fill="#FC0" d="M9.164 12.422v23.51h30.243V11.8l-4.378-3.25L24.367.667z"/>
        <path stroke="#000" stroke-linecap="round" stroke-linejoin="round" stroke-width="1.315" d="M9.164 12.422v23.51h30.243V3.873h-4.378V6.01"/>
        <path fill="#FFF" d="M26.183 7.515c0 1.062-.85 1.924-1.897 1.924-1.048 0-1.897-.862-1.897-1.924 0-1.062.85-1.923 1.897-1.923 1.048 0 1.897.86 1.897 1.923"/>
        <path stroke="#000" stroke-linecap="round" stroke-linejoin="round" stroke-width="1.315" d="M26.183 7.515c0 1.062-.85 1.924-1.897 1.924-1.048 0-1.897-.862-1.897-1.924 0-1.062.85-1.923 1.897-1.923 1.048 0 1.897.86 1.897 1.923z"/>
        <path fill="#FFF" d="M35.51 35.933V26.31c0-2.792-2.233-5.055-4.986-5.055-2.754 0-4.987 2.263-4.987 5.055v9.622"/>
        <path stroke="#000" stroke-linecap="round" stroke-linejoin="round" stroke-width="1.315" d="M35.51 35.933V26.31c0-2.792-2.233-5.055-4.986-5.055-2.754 0-4.987 2.263-4.987 5.055v9.622"/>
        <path fill="#000" d="M34.211 28.993c0 .552-.442 1-.986 1a.993.993 0 0 1-.987-1c0-.553.442-1 .987-1 .544 0 .986.447.986 1"/>
        <path stroke="#000" stroke-linecap="round" stroke-linejoin="round" stroke-width="1.315" d="M2.435 35.933h42.404M25.449 38.966h10.185M9.164 12.422L24.367.667 39.407 11.8"/>
        <path fill="#FFF" d="M20.317 29.31v-7.768h-6.372v7.768"/>
        <path stroke="#000" stroke-linecap="round" stroke-linejoin="round" stroke-width="1.315" d="M20.317 29.31v-7.768h-6.372v7.768M12.495 30.05h9.156M13.944 24.836h6.372"/>
        <mask id="b" fill="#fff">
            <use xlink:href="#a"/>
        </mask>
        <path fill="#FFF" d="M9.165 14.522h30.242v-2.1H9.165z" mask="url(#b)"/>
        <path stroke="#000" stroke-linecap="round" stroke-linejoin="round" stroke-width="1.315" d="M9.165 14.522h30.242v-2.1H9.165z" mask="url(#b)"/>
    </g>
</svg>
