<svg xmlns="http://www.w3.org/2000/svg" xmlns:xlink="http://www.w3.org/1999/xlink" width="72" height="72" viewBox="0 0 72 72">
    <defs>
        <circle id="a" cx="28" cy="28" r="28"/>
    </defs>
    <g fill="none" fill-rule="evenodd">
        <g transform="translate(8 8)">
            <use fill="#7BE3EF" fill-opacity=".5" xlink:href="#a"/>
            <circle cx="28" cy="28" r="28.737" stroke="#3EB5E5" stroke-width="1.474"/>
        </g>
        <path fill="#FFF" d="M54.06 50.24a1.66 1.66 0 0 1-1.66 1.65H19.434a1.66 1.66 0 0 1-1.659-1.65V31.326c0-.907.747-1.65 1.66-1.65H52.4c.913 0 1.66.743 1.66 1.65V50.24z"/>
        <path stroke="#3EB5E5" stroke-width="1.328" d="M54.06 50.24a1.66 1.66 0 0 1-1.66 1.65H19.434a1.66 1.66 0 0 1-1.659-1.65V31.326c0-.907.747-1.65 1.66-1.65H52.4c.913 0 1.66.743 1.66 1.65V50.24z"/>
        <path fill="#FFF" d="M24.412 46.941a1.66 1.66 0 0 1-1.66-1.65v-9.016c0-.907.747-1.65 1.66-1.65h23.01c.913 0 1.66.743 1.66 1.65v9.017a1.66 1.66 0 0 1-1.66 1.65"/>
        <path stroke="#7BE3EF" stroke-width="1.328" d="M31.403 46.941h16.02a1.66 1.66 0 0 0 1.66-1.65v-9.016a1.66 1.66 0 0 0-1.66-1.65H24.412a1.66 1.66 0 0 0-1.66 1.65v9.017c0 .907.747 1.65 1.66 1.65h6.991z"/>
        <path fill="#FFF" d="M17 25.388c0-.907.747-1.65 1.66-1.65h34.515c.913 0 1.66.743 1.66 1.65v6.488c0 3.266-2.689 5.938-5.974 5.938H22.974c-3.286 0-5.974-2.672-5.974-5.938v-6.488z"/>
        <path stroke="#3EB5E5" stroke-width="1.328" d="M17 25.388c0-.907.747-1.65 1.66-1.65h34.515c.913 0 1.66.743 1.66 1.65v6.488c0 3.266-2.689 5.938-5.974 5.938H22.974c-3.286 0-5.974-2.672-5.974-5.938v-6.488zM28.726 23.519v-1.87c0-.907.747-1.649 1.66-1.649h11.063c.913 0 1.66.742 1.66 1.65v1.869"/>
        <path fill="#FFF" d="M38.905 38.914a.498.498 0 0 1-.498.495h-4.98a.498.498 0 0 1-.497-.495v-2.2c0-.272.224-.494.498-.494h4.979c.273 0 .498.222.498.495v2.199z"/>
        <path stroke="#3EB5E5" stroke-width="1.328" d="M38.905 38.914a.498.498 0 0 1-.498.495h-4.98a.498.498 0 0 1-.497-.495v-2.2c0-.272.224-.494.498-.494h4.979c.273 0 .498.222.498.495v2.199z"/>
    </g>
</svg>
