<svg xmlns="http://www.w3.org/2000/svg" xmlns:xlink="http://www.w3.org/1999/xlink" width="72" height="72" viewBox="0 0 72 72">
    <defs>
        <circle id="a" cx="28" cy="28" r="28"/>
    </defs>
    <g fill="none" fill-rule="evenodd" transform="translate(8 8)">
        <mask id="b" fill="#fff">
            <use xlink:href="#a"/>
        </mask>
        <circle cx="28" cy="28" r="28.738" stroke="#E4E6E8" stroke-width="1.475"/>
        <g mask="url(#b)">
            <path d="M13.625 47.36h28.75V10.204h-28.75z"/>
            <path fill="#FFF" d="M17.375 43.516H38v-31.39H17.375z"/>
            <path fill="#3EB5E5" d="M42.375 48h-28.75a.632.632 0 0 1-.625-.64V10.202c0-.354.28-.64.625-.64h7.5v1.28H14.25V46.72h27.5V10.844h-6.875V9.563h7.5c.346 0 .625.286.625.64V47.36c0 .355-.28.641-.625.641z"/>
            <path fill="#FFF" d="M21.125 14.048h13.75V7.64h-13.75z"/>
            <path fill="#3EB5E5" d="M21.75 13.406h12.5V8.281h-12.5v5.125zm13.125 1.281h-13.75a.632.632 0 0 1-.625-.64V7.64c0-.355.28-.641.625-.641h13.75c.346 0 .625.286.625.64v6.407c0 .354-.28.64-.625.64z"/>
            <path fill="#3EB5E5" d="M38.625 44.156h-21.25a.632.632 0 0 1-.625-.64v-30.75c0-.355.28-.641.625-.641h3.75v1.281H18v29.469h20V13.406h-3.126v-1.281h3.751c.346 0 .625.286.625.64v30.75c0 .355-.28.641-.625.641"/>
            <path fill="#3EB5E5" d="M32.375 12.125h-8.75a.632.632 0 0 1-.625-.64V9.562h1.25v1.28h7.5v-1.28H33v1.921c0 .355-.28.641-.625.641"/>
            <path stroke="#3EB5E5" stroke-width="1.25" d="M20.5 23.657h11.25M20.5 20.924h15"/>
            <path fill="#3EB5E5" d="M20.5 33.906h5v5.125h-5z" opacity=".5"/>
        </g>
    </g>
</svg>
