<svg xmlns="http://www.w3.org/2000/svg" xmlns:xlink="http://www.w3.org/1999/xlink" width="72" height="72" viewBox="0 0 72 72">
    <defs>
        <circle id="a" cx="32.516" cy="32.516" r="32.516"/>
    </defs>
    <g fill="none" fill-rule="evenodd" transform="translate(3.484 3.484)">
        <mask id="b" fill="#fff">
            <use xlink:href="#a"/>
        </mask>
        <circle cx="32.516" cy="32.516" r="33.372" stroke="#3EB5E5" stroke-width="1.711"/>
        <g mask="url(#b)">
            <path fill="#FFF" d="M8.884 67.346V56.98S9.08 43.76 24.08 40.167c0 0 3.388 3.487 8.564 3.45 5.176.037 8.565-3.45 8.565-3.45C56.207 43.759 56.402 56.98 56.402 56.98v10.366"/>
            <path stroke="#3EB5E5" stroke-linecap="round" stroke-linejoin="round" stroke-width="1.51" d="M8.884 67.346V56.98S9.08 43.76 24.08 40.167c0 0 3.388 3.487 8.564 3.45 5.176.037 8.565-3.45 8.565-3.45C56.207 43.759 56.402 56.98 56.402 56.98v10.366"/>
            <path fill="#FFF" d="M44.668 20.766c.143.17 1.062.186 1.35.43.834.707.63 2.138.364 3.064-.135.465-.36.885-.641 1.284-.284.4-1.145.976-1.267 1.401-.663 2.317-3.51 13.27-11.877 13.27-8.364 0-12.071-9.97-12.586-13.058-1.483-.212-3.69-6.812.474-6.39l5.399-5.91 12.056-2.186 6.728 8.095"/>
            <path stroke="#3EB5E5" stroke-linecap="round" stroke-linejoin="round" stroke-width="1.51" d="M44.668 20.766c.143.17 1.062.186 1.35.43.834.707.63 2.138.364 3.064-.135.465-.36.885-.641 1.284-.284.4-1.145.976-1.267 1.401-.663 2.317-3.51 13.27-11.877 13.27-8.364 0-12.071-9.97-12.586-13.058-1.483-.212-3.69-6.812.474-6.39l5.399-5.91 12.056-2.186 6.728 8.095z"/>
            <path fill="#FFF" d="M43.641 23.436s1.962-3.793 1.21-7.863c-.725-3.931-3.757-8.312-10.572-8.917-9.484-.843-18.218 3.861-13.21 16.78 0 0 1.27-5.523 5.763-5.523l13.29-.647s-.357 3.227 1.681 3.227c2.038 0 1.934 2.005 1.838 2.943"/>
            <path stroke="#3EB5E5" stroke-linecap="round" stroke-linejoin="round" stroke-width="1.51" d="M43.641 23.436s1.962-3.793 1.21-7.863c-.725-3.931-3.757-8.312-10.572-8.917-9.484-.843-18.218 3.861-13.21 16.78 0 0 1.27-5.523 5.763-5.523l13.29-.647s-.357 3.227 1.681 3.227c2.038 0 1.934 2.005 1.838 2.943z"/>
            <path fill="#FFF" d="M29.146 34.014a5.004 5.004 0 0 0 3.218 1.187 5.003 5.003 0 0 0 3.216-1.187"/>
            <path stroke="#3EB5E5" stroke-linecap="round" stroke-linejoin="round" stroke-width="1.51" d="M29.146 34.014a5.004 5.004 0 0 0 3.218 1.187 5.003 5.003 0 0 0 3.216-1.187"/>
            <path fill="#FFF" d="M18.083 69.668V56.013"/>
            <path stroke="#3EB5E5" stroke-linecap="round" stroke-linejoin="round" stroke-width="1.51" d="M18.083 69.668V56.013"/>
            <path fill="#FFF" d="M30.435 43.415l-6.357 3.792v-7.04"/>
            <path stroke="#3EB5E5" stroke-linecap="round" stroke-linejoin="round" stroke-width="1.51" d="M30.435 43.415l-6.357 3.792v-7.04"/>
            <path fill="#FFF" d="M35.68 48.876l-.662-3.338h-4.742l-.67 3.338h1.114l-1.113 18.47h6.073l-1.113-18.47z"/>
            <path stroke="#7BE3EF" stroke-linecap="round" stroke-linejoin="round" stroke-width="1.51" d="M35.68 48.876l-.662-3.338h-4.742l-.67 3.338h1.114l-1.113 18.47h6.073l-1.113-18.47z"/>
            <g>
                <path fill="#FFF" d="M47.696 69.668V56.013"/>
                <path stroke="#3EB5E5" stroke-linecap="round" stroke-linejoin="round" stroke-width="1.51" d="M47.696 69.668V56.013"/>
            </g>
            <path stroke="#3EB5E5" stroke-linecap="round" stroke-linejoin="round" stroke-width="1.51" d="M24.079 40.167s3.388 3.487 8.564 3.45c5.176.037 8.565-3.45 8.565-3.45"/>
            <path stroke="#3EB5E5" stroke-linecap="round" stroke-linejoin="round" stroke-width="1.51" d="M34.705 43.415l6.357 3.792v-7.04"/>
        </g>
    </g>
</svg>
