<svg xmlns="http://www.w3.org/2000/svg" width="154" height="125" viewBox="0 0 154 125">
    <g fill="none" fill-rule="evenodd">
        <path d="M123.356 38.826c0-1.272-.897-2.849-1.993-3.503L77.361 9.022c-1.096-.654-2.898-.668-4.005-.03l-45.677 26.36c-1.108.64-2.012 2.202-2.012 3.474v66.37a2.328 2.328 0 0 0 2.326 2.312h93.037a2.328 2.328 0 0 0 2.326-2.312v-66.37z"/>
        <path stroke="#3EB5E5" stroke-linecap="round" stroke-width="3.231" d="M105.562 107.955h15.468a2.333 2.333 0 0 0 2.326-2.323V38.963c0-1.277-.897-2.861-1.993-3.519L77.361 9.024c-1.096-.656-2.898-.67-4.005-.03l-45.677 26.48c-1.108.642-2.012 2.212-2.012 3.49v66.668a2.333 2.333 0 0 0 2.326 2.323h4.538"/>
        <path fill="#FFF" d="M37.31 66.42c-1.082-.68-1.966-2.278-1.966-3.55V18.854a2.326 2.326 0 0 1 2.326-2.313h74.472c1.28 0 2.326 1.041 2.326 2.313V62.87c0 1.272-.872 2.886-1.94 3.589L77.702 89.383c-1.068.701-2.824.717-3.903.037l-36.49-23z"/>
        <path stroke="#3EB5E5" stroke-linecap="round" stroke-width="3.231" d="M35.344 64.473v-45.62a2.326 2.326 0 0 1 2.326-2.312h74.472c1.28 0 2.326 1.041 2.326 2.313v45.62"/>
        <path fill="#7BE3EF" d="M71.016 60.476c.762.844 1.764 1.264 3.002 1.264.96 0 1.837-.24 2.634-.723a7.65 7.65 0 0 0 2.072-1.83 8.286 8.286 0 0 0 1.358-2.498c.317-.928.478-1.836.478-2.731 0-1.271-.398-2.319-1.196-3.143-.798-.825-1.763-1.237-2.898-1.237a5.28 5.28 0 0 0-2.658.696 7.19 7.19 0 0 0-2.1 1.803 8.556 8.556 0 0 0-1.356 2.45c-.32.893-.481 1.769-.481 2.625 0 1.377.38 2.482 1.145 3.324m12.814-.567c-.09.397-.133.766-.133 1.108 0 .343.071.629.21.85.145.225.373.337.694.337.745 0 1.498-.234 2.258-.698.764-.461 1.438-1.114 2.02-1.958.587-.84 1.066-1.846 1.438-3.014.372-1.168.558-2.439.558-3.813 0-2.06-.372-3.873-1.116-5.436a11.612 11.612 0 0 0-3.057-3.967c-1.296-1.082-2.818-1.898-4.573-2.448-1.755-.55-3.642-.824-5.663-.824-2.268 0-4.333.386-6.194 1.16-1.861.772-3.45 1.837-4.759 3.194-1.311 1.359-2.322 2.971-3.033 4.845-.709 1.872-1.061 3.888-1.061 6.052 0 2.27.39 4.322 1.168 6.158.782 1.838 1.863 3.42 3.245 4.74 1.383 1.323 3.038 2.347 4.97 3.068 1.931.721 4.034 1.082 6.302 1.082 2.233 0 4.351-.37 6.354-1.11 2.003-.738 3.696-1.777 5.078-3.117h4.466c-1.81 2.68-4.13 4.734-6.967 6.157-2.836 1.426-5.92 2.138-9.25 2.138-2.838 0-5.496-.478-7.975-1.442-2.482-.96-4.655-2.3-6.516-4.02a18.683 18.683 0 0 1-4.384-6.105c-1.064-2.35-1.598-4.901-1.598-7.652 0-2.713.534-5.245 1.598-7.6a18.844 18.844 0 0 1 4.36-6.105c1.843-1.718 3.987-3.073 6.433-4.071 2.446-.996 5.05-1.494 7.814-1.494 2.41 0 4.735.378 6.968 1.133 2.233.756 4.198 1.814 5.902 3.17a15.612 15.612 0 0 1 4.094 4.946c1.028 1.94 1.542 4.096 1.542 6.466 0 2.645-.49 4.914-1.462 6.802-.977 1.89-2.147 3.435-3.51 4.637-1.364 1.202-2.747 2.089-4.147 2.653-1.4.567-2.526.853-3.379.853-1.132 0-2.047-.275-2.736-.827-.693-.547-1.072-1.251-1.145-2.11h-.104c-.64 1.028-1.473 1.786-2.5 2.265a7.54 7.54 0 0 1-3.243.721 7.588 7.588 0 0 1-3.216-.695 8.533 8.533 0 0 1-2.661-1.907 9.179 9.179 0 0 1-1.806-2.806 8.77 8.77 0 0 1-.664-3.4c0-1.615.272-3.212.824-4.795a13.76 13.76 0 0 1 2.34-4.225 11.755 11.755 0 0 1 3.668-2.988c1.436-.756 3.02-1.132 4.759-1.132 1.132 0 2.304.266 3.51.799 1.204.532 2.108 1.466 2.71 2.806l.852-2.782h4.36l-3.35 13.295c-.107.344-.206.713-.293 1.106"/>
        <path stroke="#3EB5E5" stroke-width="3.231" d="M123.356 60.083L77.32 89.78c-1.072.691-2.838.703-3.922.028L44.432 71.769 25.667 60.083"/>
        <path stroke="#3EB5E5" stroke-linecap="round" stroke-width="3.231" d="M121.692 106.196l-34.71-22.39M27.093 106.196l34.71-22.39M41.352 116.477h92.685M21.389 116.477h11.407"/>
        <path stroke="#3EB5E5" stroke-linecap="round" stroke-width="2.86" d="M44.204 24.148h24.24M75.574 24.148h5.704"/>
        <path stroke="#3EB5E5" stroke-linecap="round" stroke-width="3.231" d="M131.185 107.955h14.26M11.407 107.955h82.704"/>
    </g>
</svg>
