<svg xmlns="http://www.w3.org/2000/svg" width="72" height="72" viewBox="0 0 72 72">
    <g fill="none" fill-rule="evenodd">
        <path fill="#FC0" d="M55.85 11.215h7.1V58.99h-7.1z"/>
        <path fill="#FFF" d="M56.815 5.3h4.675v5.55h-4.675zM5.3 68.275V8.365l4.435-2.98 4.44 2.98 4.435-2.98 4.44 2.98 4.44-2.98 4.435 2.98 4.44-2.98 4.435 2.98 4.44-2.98 4.435 2.98v59.91z"/>
        <path fill="#A7A5A6" d="M25.75 18.475h16.5v2h-16.5zM25.75 22.975h13v2h-13z"/>
        <path fill="#FC0" d="M12.01 18.74h7.525v7.525H12.01z"/>
        <path fill="#231F20" d="M16.54 25.035l-3.11-3.11 1.415-1.415 1.695 1.7 4.75-4.75 1.415 1.415z"/>
        <path fill="#A7A5A6" d="M25.75 33.475h16.5v2h-16.5zM25.75 37.975h13v2h-13z"/>
        <path fill="#FC0" d="M12.01 33.135h7.525v7.525H12.01z"/>
        <path fill="#231F20" d="M16.54 39.46l-3.11-3.11 1.415-1.415 1.695 1.695 4.75-4.745 1.415 1.41z"/>
        <path fill="#A7A5A6" d="M25.75 47.475h16.5v2h-16.5zM25.75 57.475h16.5v2h-16.5zM25.75 52.975h13v2h-13z"/>
        <path fill="#FC0" d="M12.01 47.565h7.525v7.525H12.01z"/>
        <path fill="#231F20" d="M16.54 53.88l-3.11-3.11 1.415-1.415 1.695 1.7 4.75-4.75 1.415 1.415zM56.465 57.66h5.58V12.38h-5.58v45.28zm7.58 2h-9.58V10.38h9.58v49.28z"/>
        <path fill="#231F20" d="M55.745 10.475v2h10.5v25h2v-27z"/>
        <path fill="#FFF" d="M56.435 59.475l2.91 8.455 2.73-8.455z"/>
        <path fill="#231F20" d="M57.84 60.475l1.475 4.295 1.385-4.295h-2.86zm1.505 8.5c-.425 0-.805-.295-.945-.695l-2.91-8.47a1.01 1.01 0 0 1 .945-1.335h5.64c.32 0 .62.15.805.41.19.26.245.59.145.895L60.3 68.26c-.135.41-.515.715-.945.715h-.01zM6 67h42.38V8.625l-3.44-2.31-4.44 2.98-4.435-2.98-4.44 2.98-4.435-2.98-4.44 2.98-4.435-2.98-4.44 2.98-4.435-2.98L6 8.625V67zm44.38 2H4V7.555l5.44-3.65 4.435 2.98 4.44-2.98 4.435 2.98 4.44-2.98 4.435 2.98 4.44-2.98 4.435 2.98 4.44-2.98 5.44 3.65V69zM57.745 10.045h2.86v-4.07h-2.86v4.07zm4.86 2h-6.86v-8.07h6.86v8.07z"/>
    </g>
</svg>
