<svg xmlns="http://www.w3.org/2000/svg" width="216" height="120" viewBox="0 0 216 120">
    <g fill="none" fill-rule="evenodd">
        <path d="M142.387 93.769v7.022H81.71V19.466h44.895l15.782 15.598"/>
        <path stroke="#FFF" stroke-linecap="round" stroke-linejoin="round" stroke-width="2.742" d="M142.387 93.769v7.022H81.71V19.466h44.895l15.782 15.598"/>
        <path fill="#FFF" d="M142.387 75.254v-40.19 40.19z"/>
        <path stroke="#FFF" stroke-linecap="round" stroke-linejoin="round" stroke-width="2.742" d="M142.387 35.064v33.954M142.387 74.112V82.6"/>
        <path stroke="#FFF" stroke-linecap="round" stroke-width="2.742" d="M102.442 40.437h21.618M102.442 46.22h17.172"/>
        <path stroke="#231F20" stroke-linecap="round" stroke-width="2.742" d="M94.803 58.263h21.617M94.803 64.046h17.171M94.803 79.388h21.617"/>
        <path stroke="#FFF" stroke-linecap="round" stroke-width="2.742" d="M94.803 85.171h17.171"/>
        <g>
            <path fill="#7BE3EF" d="M126.606 19.465v15.6h15.781z"/>
            <path stroke="#FFF" stroke-linejoin="round" stroke-width="2.742" d="M126.606 19.465v15.6h15.781z"/>
        </g>
        <g>
            <path fill="#7BE3EF" d="M134.065 68.71L100.2 35.454a7.503 7.503 0 0 0-5.263-2.148c-.165 0-.326 0-.49.012l-19.229 1.248c-2.086.134-3.771 1.788-3.908 3.824l-.458 6.714a13.237 13.237 0 0 1-2.747-2.076c-2.058-2.02-3.329-4.527-3.59-7.08-.258-2.424.454-4.591 1.99-6.1 3.27-3.208 9.288-2.498 13.442 1.572a1.797 1.797 0 0 0 2.513 0 1.726 1.726 0 0 0 0-2.467c-5.56-5.416-13.836-6.11-18.48-1.552-2.304 2.258-3.373 5.408-3.016 8.905.338 3.355 1.979 6.62 4.608 9.201a16.551 16.551 0 0 0 5.014 3.383l-.563 8.4c-.148 2.107.656 4.168 2.18 5.66l33.876 33.262c1.684 1.654 3.916 2.55 6.296 2.55 2.38 0 4.612-.912 6.297-2.55l15.42-15.141a8.566 8.566 0 0 0 2.602-6.181 8.617 8.617 0 0 0-2.63-6.182m-2.501 9.884l-15.432 15.15a5.366 5.366 0 0 1-3.784 1.535 5.366 5.366 0 0 1-3.783-1.536l-33.88-33.254a3.784 3.784 0 0 1-1.142-2.965l.518-7.602c.298.043.591.087.889.118.446.044.885.071 1.315.071 3.032 0 5.734-1.046 7.748-3.023a1.726 1.726 0 0 0 0-2.467 1.81 1.81 0 0 0-2.517 0c-1.532 1.516-3.74 2.21-6.204 1.962-.342-.028-.668-.087-.993-.146l.53-7.776c.016-.32.286-.565.608-.596l19.235-1.248c.085 0 .177-.015.266-.015 1.033 0 2.038.406 2.762 1.12l33.864 33.24a5.164 5.164 0 0 1 1.568 3.714c0 1.41-.559 2.731-1.568 3.718"/>
            <path fill="#3EC4E5" d="M131.564 78.593L116.13 93.742a5.374 5.374 0 0 1-3.783 1.543 5.374 5.374 0 0 1-3.784-1.543l-33.88-33.259a3.776 3.776 0 0 1-1.142-2.96l.519-7.602c.298.043.591.086.889.118.446.043.884.071 1.314.071 3.032 0 5.734-1.042 7.749-3.016a1.726 1.726 0 0 0 0-2.467 1.788 1.788 0 0 0-2.517 0c-1.532 1.504-3.74 2.203-6.205 1.958-.341-.031-.667-.09-.993-.146l.531-7.78c.016-.32.281-.568.607-.596l19.236-1.247c.084 0 .177-.016.265-.016 1.034 0 2.039.41 2.763 1.121l33.864 33.24a5.16 5.16 0 0 1 1.568 3.717 5.164 5.164 0 0 1-1.568 3.715"/>
            <text fill="#FFF" font-family="HelveticaNeue-Bold, Helvetica Neue" font-size="17.826" font-weight="bold" transform="rotate(44 44.285 128.19)">
                <tspan x="16.718" y="47.83">Gratis</tspan>
            </text>
        </g>
        <path stroke="#FFF" stroke-linecap="round" stroke-width="2.547" d="M64.71 84.982h-5.68M69.646 85.241h11.506M148.14 93.683h27.33"/>
        <path stroke="#7BE3EF" stroke-linecap="round" stroke-width="2.547" d="M69.952 90.995H48.78"/>
        <path stroke="#FFF" stroke-linecap="round" stroke-width="2.547" d="M174.903 99.601h-17.26"/>
        <path stroke="#7BE3EF" stroke-linecap="round" stroke-width="2.547" d="M155.026 107.57H119.47"/>
    </g>
</svg>
