<svg xmlns="http://www.w3.org/2000/svg" xmlns:xlink="http://www.w3.org/1999/xlink" width="174" height="143" viewBox="0 0 174 143">
    <defs>
        <path id="a" d="M18.953 1.365L.004 20.285l9.13 14.076c12.84-2.7 9.505-17.347 9.505-17.347C29.844 5.825 21.341 1.037 21.341 1.037a1.918 1.918 0 0 0-.938-.23c-.537 0-1.085.195-1.45.558z"/>
    </defs>
    <g fill="none" fill-rule="evenodd">
        <path stroke="#C6BDB2" stroke-linecap="round" stroke-linejoin="round" stroke-width="3.03" d="M146.365 100.191H98.903M138.11 91.965h16.508M167 91.965h-6.192"/>
        <path d="M75.114 92.424s.378 9.804-6.989 13.953v4.167H40.554v-36.03l13.41-13.388 21.15 31.298z"/>
        <path stroke="#C6BDB2" stroke-linejoin="round" stroke-width="3.03" d="M40.555 110.544V77.53c0-1.658.96-3.977 2.135-5.149L53.96 61.127"/>
        <path stroke="#C6BDB2" stroke-width="3.03" d="M75.114 92.424c0 .002.381 9.802-6.989 13.953v4.167"/>
        <path stroke="#C6BDB2" stroke-linejoin="round" stroke-width="3.03" d="M82.336 16.622H68.162s-.38-9.426 7.485-9.426M66.932 68.12h12.943V55.21H66.932zM66.932 42.893h12.943v-12.91H66.932z"/>
        <path stroke="#ECE9E5" stroke-linejoin="round" stroke-width="3.03" d="M89.453 32.431h28.378M89.453 40.042h21.711M89.453 55.658h28.378M89.453 63.269h21.711M89.453 70.514h25.045"/>
        <path stroke="#C6BDB2" stroke-linejoin="round" stroke-width="3.03" d="M82.697 25.366l9.47 6.65 9.468-6.65 9.47 6.65 9.473-6.65 9.469 6.65 9.476-6.65 9.48 6.65 9.482-6.65"/>
        <path stroke="#C6BDB2" stroke-linejoin="round" stroke-width="3.03" d="M69.012 5.925h75.306c7.822 0 14.167 6.326 14.167 14.132v5.308l-9.482 6.65-9.48-6.65-9.476 6.65-9.469-6.65-9.473 6.65-9.47-6.65-9.468 6.65-9.47-6.65v-5.318c0-7.806-6.345-14.132-14.167-14.132-7.823 0-14.17 6.326-14.17 14.132v71.186h75.693V17.968"/>
        <path fill="#FFF" d="M82.697 25.366l9.47 6.65 9.468-6.65 9.47 6.65 9.473-6.65 9.469 6.65 9.476-6.65 9.48 6.65 9.482-6.65"/>
        <path stroke="#C6BDB2" stroke-linejoin="round" stroke-width="3.03" d="M82.697 25.366l9.47 6.65 9.468-6.65 9.47 6.65 9.473-6.65 9.469 6.65 9.476-6.65 9.48 6.65 9.482-6.65"/>
        <path fill="#FFF" d="M68.53 5.916c7.822 0 14.167 6.326 14.167 14.131v5.318l9.47 6.65 9.468-6.65 9.47 6.65 9.473-6.65 9.469 6.65 9.476-6.65 9.48 6.65 9.482-6.65v-5.308c0-7.806-6.345-14.131-14.167-14.131H69.012"/>
        <path stroke="#C6BDB2" stroke-linejoin="round" stroke-width="3.03" d="M68.53 5.916c7.822 0 14.167 6.326 14.167 14.131v5.318l9.47 6.65 9.468-6.65 9.47 6.65 9.473-6.65 9.469 6.65 9.476-6.65 9.48 6.65 9.482-6.65v-5.308c0-7.806-6.345-14.131-14.167-14.131H69.012"/>
        <path stroke="#C6BDB2" stroke-linecap="round" stroke-linejoin="round" stroke-width="3.03" d="M72.475 131.042v6.17M58.032 120.758H41.525M35.555 137.211v-26.447h37.141v12.34"/>
        <g transform="translate(48.23 68.175)">
            <mask id="b" fill="#fff">
                <use xlink:href="#a"/>
            </mask>
            <path fill="#FFF" d="M-8.33 42.673h41.093v-50.18H-8.33z" mask="url(#b)"/>
        </g>
        <g stroke="#C6BDB2" stroke-linecap="round" stroke-linejoin="round" stroke-width="3.03">
            <path d="M48.235 88.46l18.949-18.92c.59-.587 1.661-.735 2.388-.327 0 0 8.502 4.788-2.702 15.976 0 0 3.337 14.647-9.505 17.347M7.207 55.248h41.181M20.055 63.56h16.667M7.798 63.56h6.666"/>
        </g>
    </g>
</svg>
