<svg xmlns="http://www.w3.org/2000/svg" width="52" height="52" viewBox="0 0 52 52">
    <g fill="none" fill-rule="evenodd">
        <path fill="#FFF" d="M44.2 42.631v3.585H13.225V4.7h22.918l8.057 7.963"/>
        <path stroke="#000" stroke-linecap="round" stroke-linejoin="round" stroke-width="1.4" d="M44.2 42.631v3.585H13.225V4.7h22.918l8.057 7.963"/>
        <path fill="#FFF" d="M44.2 33.18V12.662v20.516z"/>
        <path stroke="#000" stroke-linecap="round" stroke-linejoin="round" stroke-width="1.4" d="M44.2 12.663v29.614"/>
        <path stroke="#231F20" stroke-linecap="round" stroke-width="1.4" d="M23.808 15.406h11.036M23.808 18.358h8.766M19.908 24.506h11.036M19.908 27.458h8.766M19.908 35.29h11.036M19.908 38.242h8.766"/>
        <g>
            <path fill="#FEC414" d="M36.143 4.7v7.963H44.2z"/>
            <path stroke="#000" stroke-linejoin="round" stroke-width="1.4" d="M36.143 4.7v7.963H44.2z"/>
        </g>
        <g>
            <path fill="#231F20" d="M39.951 29.838L22.664 12.862a3.83 3.83 0 0 0-2.687-1.096c-.084 0-.166 0-.25.006l-9.816.637c-1.065.068-1.925.912-1.995 1.952l-.234 3.428a6.757 6.757 0 0 1-1.402-1.06c-1.051-1.032-1.7-2.311-1.833-3.615-.131-1.237.232-2.344 1.016-3.113 1.669-1.638 4.742-1.276 6.862.802a.918.918 0 0 0 1.283 0 .881.881 0 0 0 0-1.26c-2.839-2.764-7.063-3.119-9.434-.792-1.176 1.153-1.722 2.761-1.54 4.546.173 1.713 1.01 3.38 2.353 4.697a8.45 8.45 0 0 0 2.56 1.727l-.288 4.288a3.683 3.683 0 0 0 1.113 2.89l17.293 16.98c.86.844 2 1.302 3.214 1.302a4.584 4.584 0 0 0 3.215-1.302l7.872-7.73a4.399 4.399 0 0 0-.014-6.311m-1.277 5.046l-7.878 7.734a2.74 2.74 0 0 1-1.932.783 2.74 2.74 0 0 1-1.931-.783L9.638 25.64a1.932 1.932 0 0 1-.583-1.513l.265-3.881c.152.022.302.044.454.06.227.023.451.037.67.037 1.548 0 2.928-.534 3.956-1.544a.881.881 0 0 0 0-1.26.924.924 0 0 0-1.285 0c-.782.775-1.909 1.13-3.167 1.002a5.11 5.11 0 0 1-.507-.074l.271-3.97c.008-.163.146-.288.31-.304l9.82-.637c.043 0 .09-.008.135-.008.528 0 1.04.208 1.41.572L38.675 31.09c.515.503.8 1.179.8 1.896 0 .72-.285 1.394-.8 1.898"/>
            <path fill="#FFCB05" d="M38.674 34.884l-7.878 7.733a2.743 2.743 0 0 1-1.931.788 2.743 2.743 0 0 1-1.932-.788L9.638 25.64a1.927 1.927 0 0 1-.583-1.511l.265-3.881c.152.022.301.044.453.06.228.022.452.037.672.037 1.547 0 2.927-.532 3.955-1.54a.881.881 0 0 0 0-1.26.913.913 0 0 0-1.285 0c-.782.768-1.909 1.125-3.167 1-.175-.016-.34-.046-.507-.074l.27-3.972a.33.33 0 0 1 .31-.304l9.82-.637c.044 0 .09-.008.136-.008.527 0 1.04.21 1.41.572L38.674 31.09c.516.503.8 1.176.8 1.898 0 .717-.284 1.392-.8 1.896"/>
            <text fill="#231F20" font-family="HelveticaNeue-Bold, Helvetica Neue" font-size="9.1" font-weight="bold" transform="rotate(44 14.845 27.706)">
                <tspan x="8.535" y="24.739">Gratis</tspan>
            </text>
        </g>
    </g>
</svg>
