<svg xmlns="http://www.w3.org/2000/svg" xmlns:xlink="http://www.w3.org/1999/xlink" width="104" height="104" viewBox="0 0 104 104">
    <defs>
        <path id="a" d="M100.421.406v100.35H.001V.406z"/>
    </defs>
    <g fill="none" fill-rule="evenodd">
        <g transform="translate(2 .838)">
            <mask id="b" fill="#fff">
                <use xlink:href="#a"/>
            </mask>
            <path fill="#E4E6E8" d="M100.422 50.58c0 27.711-22.482 50.176-50.212 50.176C22.48 100.756 0 78.291 0 50.581 0 22.869 22.48.406 50.21.406s50.212 22.463 50.212 50.175" mask="url(#b)"/>
        </g>
        <path fill="#FFF" d="M82.204 71.886a2.795 2.795 0 0 1-2.784 2.79H26.18a2.795 2.795 0 0 1-2.784-2.79V33.184a2.795 2.795 0 0 1 2.784-2.79h53.24a2.795 2.795 0 0 1 2.784 2.79v38.702z"/>
        <g fill="#A7A5A6">
            <path d="M61.117 45.54l3.394 3.394-19.233 19.233-3.394-3.394z"/>
            <path d="M45.278 45.54l-3.394 3.394 19.233 19.233 3.394-3.394z"/>
        </g>
        <path stroke="#E4E6E8" stroke-width="1.392" d="M23.396 40.97h58.808"/>
        <path fill="#E4E6E8" d="M29.15 34.847a1.427 1.427 0 1 1-2.852 0 1.427 1.427 0 0 1 2.852 0M33.107 34.847c0 .788-.64 1.428-1.426 1.428a1.428 1.428 0 0 1 0-2.856c.787 0 1.426.64 1.426 1.428M37.062 34.847c0 .788-.639 1.428-1.425 1.428a1.428 1.428 0 0 1 0-2.856c.786 0 1.425.64 1.425 1.428"/>
    </g>
</svg>
