<svg xmlns="http://www.w3.org/2000/svg" width="52" height="52" viewBox="0 0 52 52">
    <g fill="none" fill-rule="evenodd">
        <path stroke="#3EB5E5" stroke-linecap="round" stroke-linejoin="round" stroke-width="1.371" d="M43.651 30.862a2.27 2.27 0 0 1 1.03-1.522 2.203 2.203 0 0 1 3.063.76c.38.636.417 1.39.166 2.031a3.268 3.268 0 0 1 1.54 1.344c.936 1.57.45 3.616-1.087 4.573a3.205 3.205 0 0 1-3.694-.215 2.26 2.26 0 0 1-.91 1.101 2.203 2.203 0 0 1-3.064-.759 2.313 2.313 0 0 1-.295-1.551 3.262 3.262 0 0 1-1.227-1.192c-.935-1.568-.45-3.615 1.088-4.57a3.195 3.195 0 0 1 3.39 0zM44.628 42.24v-8.324M44.947 36.125c.807 0 1.46-.667 1.46-1.49M11.705 30.602a2.751 2.751 0 0 0 1.332-1.792c.343-1.487-.56-2.977-2.017-3.327a2.666 2.666 0 0 0-2.362.573 3.935 3.935 0 0 0-2.105-1.309c-2.128-.51-4.26.838-4.762 3.012a4.088 4.088 0 0 0 1.64 4.278 2.758 2.758 0 0 0-.902 1.49c-.343 1.488.56 2.978 2.018 3.328a2.644 2.644 0 0 0 1.867-.238c.49.474 1.107.827 1.812.997 2.13.511 4.262-.837 4.762-3.011a4.094 4.094 0 0 0-1.283-4.001zM7.98 42.24V32.118M7.59 33.954c-.98 0-1.775-.811-1.775-1.813"/>
        <path fill="#FFF" d="M10.554 18.043V42.73h31.53V17.39l-4.564-3.413L26.404 5.7z"/>
        <path stroke="#3EB5E5" stroke-linecap="round" stroke-linejoin="round" stroke-width="1.371" d="M10.554 18.043V42.73h31.53V9.067H37.52v2.244"/>
        <path fill="#FFF" d="M28.297 12.891c0 1.115-.885 2.02-1.978 2.02-1.092 0-1.978-.905-1.978-2.02 0-1.116.886-2.02 1.978-2.02 1.093 0 1.978.904 1.978 2.02"/>
        <path stroke="#7BE3EF" stroke-linecap="round" stroke-linejoin="round" stroke-width="1.371" d="M28.297 12.891c0 1.115-.885 2.02-1.978 2.02-1.092 0-1.978-.905-1.978-2.02 0-1.116.886-2.02 1.978-2.02 1.093 0 1.978.904 1.978 2.02z"/>
        <path fill="#FFF" d="M38.021 42.73V32.626c0-2.931-2.328-5.308-5.198-5.308-2.871 0-5.2 2.377-5.2 5.308V42.73"/>
        <path stroke="#7BE3EF" stroke-linecap="round" stroke-linejoin="round" stroke-width="1.371" d="M38.021 42.73V32.626c0-2.931-2.328-5.308-5.198-5.308-2.871 0-5.2 2.377-5.2 5.308V42.73"/>
        <path fill="#7BE3EF" d="M36.667 35.442c0 .58-.46 1.05-1.028 1.05a1.04 1.04 0 0 1-1.03-1.05c0-.58.461-1.05 1.03-1.05.567 0 1.028.47 1.028 1.05"/>
        <path stroke="#3EB5E5" stroke-linecap="round" stroke-linejoin="round" stroke-width="1.371" d="M3.539 42.73h44.208M27.532 45.915H38.15M10.554 18.043L26.404 5.7l15.68 11.69"/>
        <path fill="#FFF" d="M22.181 35.775v-8.156h-6.643v8.156"/>
        <path stroke="#3EB5E5" stroke-linecap="round" stroke-linejoin="round" stroke-width="1.371" d="M22.181 35.775v-8.156h-6.643v8.156M14.027 36.552h9.546M15.538 31.078h6.643"/>
        <path fill="#FFF" d="M10.555 20.248h31.53v-2.205h-31.53z"/>
        <path stroke="#3EB5E5" stroke-linecap="round" stroke-linejoin="round" stroke-width="1.371" d="M10.555 20.248h31.53v-2.205h-31.53z"/>
    </g>
</svg>
