<svg xmlns="http://www.w3.org/2000/svg" width="176" height="163" viewBox="0 0 176 163">
    <g fill="none" fill-rule="evenodd">
        <path stroke="#3EB5E5" stroke-linecap="round" stroke-linejoin="round" stroke-width="3.191" d="M106.203 97.15s-8.268 8.47-20.896 8.382c-12.629.088-20.896-8.382-20.896-8.382M111.667 51.583v16.62c-1.374 5.813-7.273 27.684-24.619 27.684-17.34 0-25.021-19.397-26.086-27.156v-14.75M121.662 51.368v-6.785c0-19.442-15.828-35.2-35.35-35.2-1.252 0-2.49.068-3.711.192a35.288 35.288 0 0 0-9.65 2.41C60.055 17.232 50.965 29.85 50.965 44.583v6.785"/>
        <path stroke="#3EB5E5" stroke-linecap="round" stroke-linejoin="round" stroke-width="3.191" d="M53.133 67.353h1.47V51.367h-1.47a5.801 5.801 0 0 0-5.8 5.801v4.384a5.801 5.801 0 0 0 5.8 5.8zM118.027 67.353h1.47a5.801 5.801 0 0 0 5.8-5.801v-4.384a5.801 5.801 0 0 0-5.8-5.8h-1.47v15.985z"/>
        <path fill="#7BE3EF" d="M93.325 81.695c0 1.989-1.618 3.6-3.615 3.6h-4.415a3.607 3.607 0 0 1-3.615-3.6c0-1.99 1.618-3.6 3.615-3.6h4.415a3.607 3.607 0 0 1 3.615 3.6"/>
        <path stroke="#3EB5E5" stroke-linecap="round" stroke-linejoin="round" stroke-width="3.191" d="M93.325 81.695c0 1.989-1.618 3.6-3.615 3.6h-4.415a3.607 3.607 0 0 1-3.615-3.6c0-1.99 1.618-3.6 3.615-3.6h4.415a3.607 3.607 0 0 1 3.615 3.6zM93.325 81.695h19.887s8.45 1.642 8.45-14.341M60.96 46.12s13.952-8.721 17.493-15.882M74.814 36.473s16.074-.409 36.854 15.109M55.625 77.741s1.417 8.168-3.635 13.198h14.637"/>
        <path stroke="#3EB5E5" stroke-linecap="round" stroke-linejoin="round" stroke-width="3.191" d="M119.008 80.684c.04 2.838.691 7.143 3.817 10.255h-14.638M63.793 96.362s-25.245 2.426-25.245 40.28M106.692 96.362s25.246 2.426 25.246 40.28"/>
        <path stroke="#7BE3EF" stroke-linecap="round" stroke-linejoin="round" stroke-width="3.191" d="M95.5 127.51h19.281"/>
        <path stroke="#3EB5E5" stroke-linecap="round" stroke-linejoin="round" stroke-width="3.191" d="M85.307 105.531c2 6.91 11.823 6.475 16.623 3.344 4.103-2.683 5.579-7.835 4.763-12.513M85.307 105.531c-2 6.91-11.824 6.475-16.624 3.344-4.102-2.683-5.579-7.835-4.763-12.513M46.71 145.928H10.385M75.84 153.06H39.516M165.775 98.708h-36.323"/>
        <path stroke="#7BE3EF" stroke-linecap="round" stroke-linejoin="round" stroke-width="3.191" d="M145.588 90.939h-10.824"/>
        <path stroke="#3EB5E5" stroke-linecap="round" stroke-linejoin="round" stroke-width="3.191" d="M65.669 145.928h-7.99"/>
    </g>
</svg>
