<svg xmlns="http://www.w3.org/2000/svg" xmlns:xlink="http://www.w3.org/1999/xlink" width="200" height="33" viewBox="0 0 200 33">
    <defs>
        <path id="a" d="M0 32.777h199.917V0H0z"/>
    </defs>
    <g fill="none" fill-rule="evenodd">
        <path fill="#FEFEFE" d="M6.021 11.85c-.702 0-1.897.484-1.897 2.924 0 2.437 1.195 2.921 1.897 2.921.415 0 1.008-.178 1.415-.855.127-.212.28-.535.304-.81h3.888c0 .741-.245 1.584-.559 2.164-.778 1.55-2.432 2.712-4.886 2.712C2.345 20.906 0 18.388 0 14.839 0 11.529 1.956 8.7 5.92 8.7c3.879 0 5.624 2.307 5.708 4.604h-3.98c-.323-1.212-1.093-1.456-1.627-1.456zM16.896 18.568c-1 0-1.11-1.376-1.11-2.102s.102-2.112 1.11-2.112c.99 0 1.101 1.386 1.101 2.112 0 .71-.11 2.102-1.101 2.102m-.05-6.7c-2.787 0-4.811 1.628-4.811 4.487 0 2.824 1.905 4.55 4.81 4.55 2.786 0 4.886-1.598 4.886-4.486 0-2.875-2.083-4.55-4.886-4.55M44.174 11.946c-.67 0-1.761.193-2.592 1.293-.533-.714-1.304-1.293-2.735-1.293-1.144 0-2.218.677-2.617 1.293-.423-.616-1.321-1.293-2.676-1.293-1.168 0-2.277.565-2.719 1.242-.388-.709-1.55-1.258-2.693-1.258s-2.057.484-2.59 1.144l-.077-.72h-3.253v8.181h3.575v-4.49c0-.66.373-1.16.957-1.16.575 0 .837.305.837 1.099v4.551h3.575v-4.49c0-.66.372-1.16.957-1.16.567 0 .838.305.838 1.099v4.551h3.566v-4.49c0-.66.372-1.16.966-1.16.568 0 .829.305.829 1.099v4.551h3.633v-4.504c0-.662.382-1.178.948-1.178.568 0 .83.323.83 1.112v4.57h3.592V15.4c0-1.824-.602-3.454-3.151-3.454M52.677 18.568c-1 0-1.11-1.376-1.11-2.102s.094-2.112 1.11-2.112c.99 0 1.101 1.386 1.101 2.112 0 .71-.11 2.102-1.1 2.102m-.052-6.7c-2.794 0-4.818 1.628-4.818 4.487 0 2.824 1.913 4.55 4.818 4.55 2.786 0 4.886-1.598 4.886-4.486 0-2.875-2.083-4.55-4.886-4.55M63.924 11.93c-.973 0-1.905.423-2.592 1.242l-.035-.82h-3.293v8.166h3.573v-4.473c0-.66.374-1.16.958-1.16.576 0 .914.306.914 1.098v4.535h3.624v-5.81c0-2.1-1.954-2.778-3.15-2.778M77.89 12.353s-.442 1.415-.611 2.194c-.279.982-.304 1.436-.304 1.436s-.035-.467-.314-1.436c-.178-.84-.618-2.194-.618-2.194h-3.268s-.432 1.353-.619 2.194c-.255.917-.305 1.436-.305 1.436s-.051-.533-.288-1.436c-.17-.792-.61-2.194-.61-2.194h-3.88l2.474 8.166h3.769s.508-1.518.685-2.36c.306-1.095.331-1.562.331-1.562s.025.467.356 1.563c.195.907.685 2.343.685 2.343l3.736.016 2.472-8.166H77.89zM84.919 15.19c.058-.691.533-1.242 1.236-1.242.652 0 1.117.58 1.185 1.242h-2.421zm.872-3.322c-3.422 0-4.76 2.39-4.692 4.662.076 2.568 1.905 4.362 4.954 4.362 1.66 0 3.414-.679 4.319-2.036.187-.274.381-.696.44-1.048h-3.42c-.17.499-.737.727-1.187.727-.965 0-1.329-.712-1.337-1.536h6.012c0-3.21-1.923-5.131-5.09-5.131zM96.817 17.163c0 .805-.245 1.337-1.177 1.372-.483.016-.72-.324-.72-.599 0-.548.71-.677.982-.759.442-.128.915-.273.915-.273v.259zm3.719-1.503c-.018-2.453-.5-3.874-4.634-3.874-2.446 0-3.878.984-4.234 2.936l-.018.099h3.388c0-.55.458-.986.983-.986.517 0 .73.34.73.727 0 .5-.798.679-1.365.743-1.566.196-3.15.598-3.837 1.678-.508.81-.44 2.069.128 2.842.719.953 2.09 1.067 2.692 1.067.95 0 2.203-.485 2.804-1.099l.101.725h3.558c-.17-.645-.246-1-.263-2.567l-.033-2.29z"/>
        <mask id="b" fill="#fff">
            <use xlink:href="#a"/>
        </mask>
        <path fill="#FEFEFE" d="M101.473 20.518h3.584V8.991h-3.584zM111.706 18.082a2.51 2.51 0 0 1-.459.046c-.795 0-1.057-.498-1.057-1.287v-2.232h1.406v-2.256h-1.406V8.99h-3.574v3.363h-1.085v2.256h1.085v2.875c0 2.18.644 3.31 3 3.31.735 0 1.506-.129 2.174-.435V18.05s0 .016-.084.032M118.362 11.93c-1.016 0-2.041.58-2.583 1.242V8.99h-3.456v11.53h3.719v-4.456c0-.662.38-1.179.948-1.179.567 0 .932.324.932 1.115v4.52h3.575v-5.811c0-2.1-1.932-2.778-3.135-2.778M138.146 17.35c0 .656-.508 2.534-2.736 2.534-1.075 0-1.821-.642-1.821-1.566 0-1.222.94-1.474 1.94-1.74.762-.203 1.872-.368 2.617-.435v1.207zm1.897 2.335l-.11.008-.364.031c-.204 0-.467-.078-.467-.752v-4.488c0-1.57-1.016-2.396-2.921-2.396-1.863 0-2.99.916-3.168 2.578l-.007.103h.973l.008-.085c.052-.4.179-.753.39-1.019.354-.476.965-.728 1.753-.728 1.873 0 2.016 1.161 2.016 1.515v.24c0 .52-.339.664-.839.72-1.194.166-2.677.425-3.55.934-.176.097-.608.37-.838.803-.354.623-.38 1.602-.05 2.32.373.827 1.262 1.28 2.49 1.28 1.27 0 2.228-.54 2.82-1.533v.123c.018.831.424 1.233 1.238 1.233l.644-.111-.018-.071v-.705zM144.217 12.088c-1.134 0-2.116.61-2.59 1.519v-1.298h-.966v8.232h.966v-4.594c0-1.798 1.024-3.01 2.558-3.01 1.354 0 2.014.798 2.014 2.44v5.164h.957v-5.164c0-.814 0-3.29-2.939-3.29M154.685 12.31h-1.295l-4.184 3.951V9h-.948v11.54h.948v-3.105c.06-.046 1.346-1.21 1.492-1.333.11.165 3.066 4.439 3.066 4.439h1.168s-3.44-5.014-3.523-5.138c.11-.101 3.276-3.094 3.276-3.094M128.11 19.629h-3.583v-4.623h3.582c1.11 0 2.966.29 2.966 2.23 0 2.081-1.856 2.393-2.966 2.393zm-3.583-9.716h3.456c.957 0 2.574.275 2.574 2.09 0 1.336-.864 2.074-2.448 2.074h-3.582V9.913zm5.334 4.514c1.027-.305 1.722-1.236 1.722-2.456 0-1.86-1.347-2.971-3.6-2.971H123.503v11.54h4.606c2.499 0 3.98-1.227 3.98-3.286 0-1.819-1.37-2.643-2.228-2.827z" mask="url(#b)"/>
        <path fill="#FECB00" d="M199.19 15.666l-14.584 14.44 1.144-2.48 12.763-12.636-.73-.722-10.797 10.686 1.144-2.482 8.977-8.876-.737-.726-6.996 6.932 1.144-2.483 5.175-5.122L183.37 0l-16.557 16.387 16.557 16.39 16.548-16.39z" mask="url(#b)"/>
    </g>
</svg>
